<?xml version="1.0" encoding="UTF-8"?>
<svg xmlns="http://www.w3.org/2000/svg" xmlns:xlink="http://www.w3.org/1999/xlink" width="2000" height="2000" viewBox="0 0 2000 2000">
<defs>
<clipPath id="clip-0">
<path clip-rule="nonzero" d="M 0.601562 1 L 2000 1 L 2000 2000 L 0.601562 2000 Z M 0.601562 1 "/>
</clipPath>
<linearGradient id="linear-pattern-0" gradientUnits="userSpaceOnUse" x1="-0.000000000000000114" y1="0" x2="0.9995" y2="0" gradientTransform="matrix(0, 2000, -2000, 0, 1000.61, 1)">
<stop offset="0" stop-color="rgb(6.417847%, 5.892944%, 5.200195%)" stop-opacity="1"/>
<stop offset="0.0078125" stop-color="rgb(6.465149%, 5.921936%, 5.256653%)" stop-opacity="1"/>
<stop offset="0.015625" stop-color="rgb(6.538391%, 5.987549%, 5.375671%)" stop-opacity="1"/>
<stop offset="0.0234375" stop-color="rgb(6.587219%, 6.065369%, 5.502319%)" stop-opacity="1"/>
<stop offset="0.03125" stop-color="rgb(6.65741%, 6.132507%, 5.622864%)" stop-opacity="1"/>
<stop offset="0.0390625" stop-color="rgb(6.721497%, 6.201172%, 5.744934%)" stop-opacity="1"/>
<stop offset="0.046875" stop-color="rgb(6.770325%, 6.277466%, 5.873108%)" stop-opacity="1"/>
<stop offset="0.0546875" stop-color="rgb(6.842041%, 6.341553%, 5.993652%)" stop-opacity="1"/>
<stop offset="0.0625" stop-color="rgb(6.895447%, 6.413269%, 6.121826%)" stop-opacity="1"/>
<stop offset="0.0703125" stop-color="rgb(6.912231%, 6.466675%, 6.216431%)" stop-opacity="1"/>
<stop offset="0.078125" stop-color="rgb(6.932068%, 6.486511%, 6.269836%)" stop-opacity="1"/>
<stop offset="0.0859375" stop-color="rgb(6.996155%, 6.523132%, 6.338501%)" stop-opacity="1"/>
<stop offset="0.09375" stop-color="rgb(7.052612%, 6.591797%, 6.451416%)" stop-opacity="1"/>
<stop offset="0.101562" stop-color="rgb(7.095337%, 6.680298%, 6.588745%)" stop-opacity="1"/>
<stop offset="0.109375" stop-color="rgb(7.151794%, 6.752014%, 6.704712%)" stop-opacity="1"/>
<stop offset="0.117188" stop-color="rgb(7.147217%, 6.758118%, 6.745911%)" stop-opacity="1"/>
<stop offset="0.125" stop-color="rgb(7.154846%, 6.755066%, 6.790161%)" stop-opacity="1"/>
<stop offset="0.132812" stop-color="rgb(7.218933%, 6.806946%, 6.906128%)" stop-opacity="1"/>
<stop offset="0.140625" stop-color="rgb(7.261658%, 6.880188%, 7.038879%)" stop-opacity="1"/>
<stop offset="0.148438" stop-color="rgb(7.321167%, 6.944275%, 7.167053%)" stop-opacity="1"/>
<stop offset="0.15625" stop-color="rgb(7.383728%, 7.00531%, 7.295227%)" stop-opacity="1"/>
<stop offset="0.164062" stop-color="rgb(7.411194%, 7.078552%, 7.43103%)" stop-opacity="1"/>
<stop offset="0.171875" stop-color="rgb(7.432556%, 7.13501%, 7.56073%)" stop-opacity="1"/>
<stop offset="0.179688" stop-color="rgb(7.484436%, 7.199097%, 7.691956%)" stop-opacity="1"/>
<stop offset="0.1875" stop-color="rgb(7.548523%, 7.272339%, 7.827759%)" stop-opacity="1"/>
<stop offset="0.195312" stop-color="rgb(7.579041%, 7.328796%, 7.957458%)" stop-opacity="1"/>
<stop offset="0.203125" stop-color="rgb(7.594299%, 7.395935%, 8.096313%)" stop-opacity="1"/>
<stop offset="0.210938" stop-color="rgb(7.608032%, 7.461548%, 8.233643%)" stop-opacity="1"/>
<stop offset="0.21875" stop-color="rgb(7.644653%, 7.504272%, 8.352661%)" stop-opacity="1"/>
<stop offset="0.226562" stop-color="rgb(7.711792%, 7.546997%, 8.450317%)" stop-opacity="1"/>
<stop offset="0.234375" stop-color="rgb(7.759094%, 7.58667%, 8.540344%)" stop-opacity="1"/>
<stop offset="0.242188" stop-color="rgb(7.772827%, 7.644653%, 8.642578%)" stop-opacity="1"/>
<stop offset="0.25" stop-color="rgb(7.780457%, 7.698059%, 8.734131%)" stop-opacity="1"/>
<stop offset="0.265625" stop-color="rgb(7.791138%, 7.73468%, 8.836365%)" stop-opacity="1"/>
<stop offset="0.273438" stop-color="rgb(7.803345%, 7.780457%, 8.950806%)" stop-opacity="1"/>
<stop offset="0.28125" stop-color="rgb(7.815552%, 7.826233%, 9.05304%)" stop-opacity="1"/>
<stop offset="0.289062" stop-color="rgb(7.827759%, 7.862854%, 9.169006%)" stop-opacity="1"/>
<stop offset="0.296875" stop-color="rgb(7.83844%, 7.899475%, 9.280396%)" stop-opacity="1"/>
<stop offset="0.304687" stop-color="rgb(7.868958%, 7.93457%, 9.373474%)" stop-opacity="1"/>
<stop offset="0.3125" stop-color="rgb(7.931519%, 7.971191%, 9.465027%)" stop-opacity="1"/>
<stop offset="0.320313" stop-color="rgb(7.974243%, 8.004761%, 9.576416%)" stop-opacity="1"/>
<stop offset="0.328125" stop-color="rgb(7.981873%, 8.03833%, 9.690857%)" stop-opacity="1"/>
<stop offset="0.335938" stop-color="rgb(7.991028%, 8.071899%, 9.786987%)" stop-opacity="1"/>
<stop offset="0.34375" stop-color="rgb(7.998657%, 8.105469%, 9.881592%)" stop-opacity="1"/>
<stop offset="0.351562" stop-color="rgb(8.004761%, 8.137512%, 9.991455%)" stop-opacity="1"/>
<stop offset="0.359375" stop-color="rgb(8.010864%, 8.169556%, 10.108948%)" stop-opacity="1"/>
<stop offset="0.367188" stop-color="rgb(8.024597%, 8.207703%, 10.209656%)" stop-opacity="1"/>
<stop offset="0.375" stop-color="rgb(8.074951%, 8.27179%, 10.313416%)" stop-opacity="1"/>
<stop offset="0.382812" stop-color="rgb(8.11615%, 8.331299%, 10.432434%)" stop-opacity="1"/>
<stop offset="0.386719" stop-color="rgb(8.125305%, 8.348083%, 10.554504%)" stop-opacity="1"/>
<stop offset="0.390625" stop-color="rgb(8.128357%, 8.349609%, 10.612488%)" stop-opacity="1"/>
<stop offset="0.394531" stop-color="rgb(8.13446%, 8.34198%, 10.667419%)" stop-opacity="1"/>
<stop offset="0.398437" stop-color="rgb(8.139038%, 8.332825%, 10.720825%)" stop-opacity="1"/>
<stop offset="0.40625" stop-color="rgb(8.140564%, 8.348083%, 10.786438%)" stop-opacity="1"/>
<stop offset="0.414063" stop-color="rgb(8.140564%, 8.375549%, 10.914612%)" stop-opacity="1"/>
<stop offset="0.421875" stop-color="rgb(8.140564%, 8.401489%, 11.044312%)" stop-opacity="1"/>
<stop offset="0.429688" stop-color="rgb(8.137512%, 8.427429%, 11.174011%)" stop-opacity="1"/>
<stop offset="0.433594" stop-color="rgb(8.097839%, 8.425903%, 11.29303%)" stop-opacity="1"/>
<stop offset="0.4375" stop-color="rgb(8.059692%, 8.413696%, 11.347961%)" stop-opacity="1"/>
<stop offset="0.441406" stop-color="rgb(8.068848%, 8.444214%, 11.447144%)" stop-opacity="1"/>
<stop offset="0.445312" stop-color="rgb(8.078003%, 8.473206%, 11.5448%)" stop-opacity="1"/>
<stop offset="0.449219" stop-color="rgb(8.088684%, 8.514404%, 11.657715%)" stop-opacity="1"/>
<stop offset="0.453125" stop-color="rgb(8.097839%, 8.554077%, 11.769104%)" stop-opacity="1"/>
<stop offset="0.457031" stop-color="rgb(8.050537%, 8.566284%, 11.857605%)" stop-opacity="1"/>
<stop offset="0.460938" stop-color="rgb(8.003235%, 8.578491%, 11.94458%)" stop-opacity="1"/>
<stop offset="0.464844" stop-color="rgb(8.003235%, 8.564758%, 11.999512%)" stop-opacity="1"/>
<stop offset="0.46875" stop-color="rgb(8.000183%, 8.552551%, 12.052917%)" stop-opacity="1"/>
<stop offset="0.472656" stop-color="rgb(8.000183%, 8.551025%, 12.112427%)" stop-opacity="1"/>
<stop offset="0.476562" stop-color="rgb(7.998657%, 8.551025%, 12.17041%)" stop-opacity="1"/>
<stop offset="0.484375" stop-color="rgb(7.992554%, 8.56781%, 12.246704%)" stop-opacity="1"/>
<stop offset="0.488281" stop-color="rgb(7.971191%, 8.636475%, 12.44812%)" stop-opacity="1"/>
<stop offset="0.492187" stop-color="rgb(7.954407%, 8.688354%, 12.573242%)" stop-opacity="1"/>
<stop offset="0.496094" stop-color="rgb(7.981873%, 8.705139%, 12.664795%)" stop-opacity="1"/>
<stop offset="0.5" stop-color="rgb(8.007812%, 8.721924%, 12.754822%)" stop-opacity="1"/>
<stop offset="0.503906" stop-color="rgb(8.032227%, 8.718872%, 12.825012%)" stop-opacity="1"/>
<stop offset="0.507812" stop-color="rgb(8.053589%, 8.71582%, 12.893677%)" stop-opacity="1"/>
<stop offset="0.511719" stop-color="rgb(8.055115%, 8.700562%, 12.945557%)" stop-opacity="1"/>
<stop offset="0.515625" stop-color="rgb(8.055115%, 8.683777%, 12.995911%)" stop-opacity="1"/>
<stop offset="0.523438" stop-color="rgb(8.049011%, 8.692932%, 13.061523%)" stop-opacity="1"/>
<stop offset="0.53125" stop-color="rgb(8.030701%, 8.732605%, 13.20343%)" stop-opacity="1"/>
<stop offset="0.539062" stop-color="rgb(8.006287%, 8.790588%, 13.362122%)" stop-opacity="1"/>
<stop offset="0.542969" stop-color="rgb(7.98645%, 8.828735%, 13.529968%)" stop-opacity="1"/>
<stop offset="0.546875" stop-color="rgb(7.977295%, 8.837891%, 13.615417%)" stop-opacity="1"/>
<stop offset="0.554688" stop-color="rgb(8.01239%, 8.84552%, 13.66272%)" stop-opacity="1"/>
<stop offset="0.558594" stop-color="rgb(8.079529%, 8.882141%, 13.796997%)" stop-opacity="1"/>
<stop offset="0.5625" stop-color="rgb(8.110046%, 8.911133%, 13.883972%)" stop-opacity="1"/>
<stop offset="0.566406" stop-color="rgb(8.137512%, 8.94928%, 14.001465%)" stop-opacity="1"/>
<stop offset="0.570312" stop-color="rgb(8.163452%, 8.987427%, 14.118958%)" stop-opacity="1"/>
<stop offset="0.574219" stop-color="rgb(8.200073%, 8.99353%, 14.202881%)" stop-opacity="1"/>
<stop offset="0.578125" stop-color="rgb(8.23822%, 8.998108%, 14.285278%)" stop-opacity="1"/>
<stop offset="0.585938" stop-color="rgb(8.23822%, 9.005737%, 14.355469%)" stop-opacity="1"/>
<stop offset="0.589844" stop-color="rgb(8.239746%, 9.049988%, 14.524841%)" stop-opacity="1"/>
<stop offset="0.59375" stop-color="rgb(8.239746%, 9.085083%, 14.622498%)" stop-opacity="1"/>
<stop offset="0.597656" stop-color="rgb(8.251953%, 9.155273%, 14.761353%)" stop-opacity="1"/>
<stop offset="0.601562" stop-color="rgb(8.26416%, 9.22699%, 14.900208%)" stop-opacity="1"/>
<stop offset="0.609375" stop-color="rgb(8.253479%, 9.234619%, 14.967346%)" stop-opacity="1"/>
<stop offset="0.613281" stop-color="rgb(8.236694%, 9.230042%, 15.104675%)" stop-opacity="1"/>
<stop offset="0.617188" stop-color="rgb(8.230591%, 9.216309%, 15.17334%)" stop-opacity="1"/>
<stop offset="0.621094" stop-color="rgb(8.235168%, 9.211731%, 15.260315%)" stop-opacity="1"/>
<stop offset="0.625" stop-color="rgb(8.23822%, 9.208679%, 15.348816%)" stop-opacity="1"/>
<stop offset="0.628906" stop-color="rgb(8.256531%, 9.251404%, 15.475464%)" stop-opacity="1"/>
<stop offset="0.632812" stop-color="rgb(8.274841%, 9.294128%, 15.602112%)" stop-opacity="1"/>
<stop offset="0.636719" stop-color="rgb(8.303833%, 9.327698%, 15.705872%)" stop-opacity="1"/>
<stop offset="0.640625" stop-color="rgb(8.331299%, 9.361267%, 15.811157%)" stop-opacity="1"/>
<stop offset="0.644531" stop-color="rgb(8.308411%, 9.381104%, 15.907288%)" stop-opacity="1"/>
<stop offset="0.648438" stop-color="rgb(8.283997%, 9.40094%, 16.004944%)" stop-opacity="1"/>
<stop offset="0.652344" stop-color="rgb(8.229065%, 9.411621%, 16.093445%)" stop-opacity="1"/>
<stop offset="0.65625" stop-color="rgb(8.174133%, 9.41925%, 16.18042%)" stop-opacity="1"/>
<stop offset="0.664062" stop-color="rgb(8.1604%, 9.42688%, 16.247559%)" stop-opacity="1"/>
<stop offset="0.667969" stop-color="rgb(8.155823%, 9.468079%, 16.448975%)" stop-opacity="1"/>
<stop offset="0.671875" stop-color="rgb(8.164978%, 9.501648%, 16.583252%)" stop-opacity="1"/>
<stop offset="0.6875" stop-color="rgb(8.174133%, 9.524536%, 16.670227%)" stop-opacity="1"/>
<stop offset="0.75" stop-color="rgb(8.181763%, 9.547424%, 16.75415%)" stop-opacity="1"/>
<stop offset="1" stop-color="rgb(8.181763%, 9.547424%, 16.75415%)" stop-opacity="1"/>
</linearGradient>
</defs>
<g clip-path="url(#clip-0)">
<path fill-rule="nonzero" fill="url(#linear-pattern-0)" d="M 2000 1 L 0.601562 1 L 0.601562 2000 L 2000 2000 Z M 2000 1 "/>
</g>
<path fill-rule="nonzero" fill="rgb(11.309814%, 21.473694%, 33.830261%)" fill-opacity="1" d="M 1215.628906 978.800781 L 1296.710938 978.800781 C 1296.710938 978.800781 1385.898438 967.988281 1296.710938 905.828125 C 1296.710938 905.828125 1248.058594 840.960938 1215.628906 851.78125 C 1215.628906 851.78125 1202.109375 833.128906 1175.089844 850.558594 C 1175.089844 850.558594 1202.109375 735.558594 1056.171875 732.859375 C 1056.171875 732.859375 1012.929688 554.480469 848.058594 662.589844 C 848.058594 662.589844 650.761719 581.511719 664.277344 784.210938 C 664.277344 784.210938 437.25 619.339844 391.304688 903.128906 C 391.304688 903.128906 285.898438 821.371094 266.980469 941.980469 C 266.980469 941.980469 153.464844 886.910156 102.113281 978.800781 L 1215.628906 978.800781 "/>
<path fill="none" stroke-width="100" stroke-linecap="butt" stroke-linejoin="miter" stroke="rgb(18.182373%, 30.877686%, 46.16394%)" stroke-opacity="1" stroke-miterlimit="10" d="M 12156.289062 10211.992188 L 12967.109375 10211.992188 C 12967.109375 10211.992188 13858.984375 10320.117188 12967.109375 10941.71875 C 12967.109375 10941.71875 12480.585938 11590.390625 12156.289062 11482.1875 C 12156.289062 11482.1875 12021.09375 11668.710938 11750.898438 11494.414062 C 11750.898438 11494.414062 12021.09375 12644.414062 10561.71875 12671.40625 C 10561.71875 12671.40625 10129.296875 14455.195312 8480.585938 13374.101562 C 8480.585938 13374.101562 6507.617188 14184.882812 6642.773438 12157.890625 C 6642.773438 12157.890625 4372.5 13806.601562 3913.046875 10968.710938 C 3913.046875 10968.710938 2858.984375 11786.289062 2669.804688 10580.195312 C 2669.804688 10580.195312 1534.648438 11130.898438 1021.132812 10211.992188 Z M 12156.289062 10211.992188 " transform="matrix(0.1, 0, 0, -0.1, 0, 2000)"/>
<path fill-rule="nonzero" fill="rgb(17.132568%, 29.38385%, 44.877625%)" fill-opacity="1" d="M 926.4375 1010.199219 C 926.4375 1010.199219 823.734375 1096.679688 688.601562 1010.199219 C 688.601562 1010.199219 585.898438 1102.089844 458.871094 1010.199219 C 458.871094 1010.199219 390.78125 1010.199219 336.960938 1005.789062 C 309.234375 1003.511719 301.660156 966.378906 326.328125 953.519531 C 360.351562 935.769531 408.429688 926.488281 461.574219 964.25 C 461.574219 964.25 512.925781 666.949219 772.386719 880.46875 C 772.386719 880.46875 872.386719 801.421875 942.65625 940.941406 C 942.65625 940.941406 994.007812 866.949219 1045.359375 977.761719 C 1045.359375 977.761719 1061.570312 926.410156 1161.570312 964.25 C 1161.570312 964.25 1277.789062 1026.410156 1102.109375 1018.308594 C 1102.109375 1018.308594 1018.328125 1034.519531 926.4375 1010.199219 "/>
<path fill="none" stroke-width="100" stroke-linecap="butt" stroke-linejoin="miter" stroke="rgb(19.837952%, 31.147766%, 47.384644%)" stroke-opacity="1" stroke-miterlimit="10" d="M 9264.375 9898.007812 C 9264.375 9898.007812 8237.34375 9033.203125 6886.015625 9898.007812 C 6886.015625 9898.007812 5858.984375 8979.101562 4588.710938 9898.007812 C 4588.710938 9898.007812 3907.8125 9898.007812 3369.609375 9942.109375 C 3092.34375 9964.882812 3016.601562 10336.210938 3263.28125 10464.804688 C 3603.515625 10642.304688 4084.296875 10735.117188 4615.742188 10357.5 C 4615.742188 10357.5 5129.257812 13330.507812 7723.867188 11195.3125 C 7723.867188 11195.3125 8723.867188 11985.78125 9426.5625 10590.585938 C 9426.5625 10590.585938 9940.078125 11330.507812 10453.59375 10222.382812 C 10453.59375 10222.382812 10615.703125 10735.898438 11615.703125 10357.5 C 11615.703125 10357.5 12777.890625 9735.898438 11021.09375 9816.914062 C 11021.09375 9816.914062 10183.28125 9654.804688 9264.375 9898.007812 Z M 9264.375 9898.007812 " transform="matrix(0.1, 0, 0, -0.1, 0, 2000)"/>
<path fill-rule="nonzero" fill="rgb(11.309814%, 21.473694%, 33.830261%)" fill-opacity="1" d="M 555.929688 1432.820312 C 555.929688 1432.820312 651.953125 1304.871094 522.222656 1345.410156 C 522.222656 1345.410156 543.84375 1126.488281 322.222656 1221.089844 C 322.222656 1221.089844 97.898438 885.949219 -85.886719 1258.929688 C -85.886719 1258.929688 -253.453125 1169.738281 -310.210938 1348.121094 C -310.210938 1348.121094 -338.101562 1349.070312 -397.109375 1349.070312 C -423.492188 1349.070312 -435.03125 1406.441406 -397.109375 1451.421875 L 555.929688 1432.820312 "/>
<path fill="none" stroke-width="100" stroke-linecap="butt" stroke-linejoin="miter" stroke="rgb(20.231628%, 29.924011%, 46.165466%)" stroke-opacity="1" stroke-miterlimit="10" d="M 5559.296875 5671.796875 C 5559.296875 5671.796875 6519.53125 6951.289062 5222.226562 6545.898438 C 5222.226562 6545.898438 5438.4375 8735.117188 3222.226562 7789.101562 C 3222.226562 7789.101562 978.984375 11140.507812 -858.867188 7410.703125 C -858.867188 7410.703125 -2534.53125 8302.617188 -3102.109375 6518.789062 C -3102.109375 6518.789062 -3381.015625 6509.296875 -3971.09375 6509.296875 C -4234.921875 6509.296875 -4350.3125 5935.585938 -3971.09375 5485.78125 Z M 5559.296875 5671.796875 " transform="matrix(0.1, 0, 0, -0.1, 0, 2000)"/>
<path fill-rule="nonzero" fill="rgb(17.132568%, 29.38385%, 44.877625%)" fill-opacity="1" d="M 310.460938 1466.808594 C 310.460938 1466.808594 409.179688 1437.761719 324.214844 1393.828125 C 324.214844 1393.828125 278.027344 1223.558594 134.785156 1328.96875 C 134.785156 1328.96875 61.8125 1316.160156 78.027344 1380.671875 C 78.027344 1380.671875 -13.863281 1283.730469 -100.351562 1380.671875 C -100.351562 1380.671875 -184.136719 1353.289062 -192.242188 1428.96875 C -192.242188 1428.96875 -268.5 1396.890625 -254.40625 1450.589844 C -254.40625 1450.589844 -189.539062 1526.269531 -94.945312 1466.808594 C -94.945312 1466.808594 -5.757812 1537.078125 91.539062 1466.808594 C 91.539062 1466.808594 196.945312 1539.78125 310.460938 1466.808594 "/>
<path fill="none" stroke-width="100" stroke-linecap="butt" stroke-linejoin="miter" stroke="rgb(19.837952%, 31.147766%, 47.384644%)" stroke-opacity="1" stroke-miterlimit="10" d="M 3104.609375 5331.914062 C 3104.609375 5331.914062 4091.796875 5622.382812 3242.148438 6061.71875 C 3242.148438 6061.71875 2780.273438 7764.414062 1347.851562 6710.3125 C 1347.851562 6710.3125 618.125 6838.398438 780.273438 6193.28125 C 780.273438 6193.28125 -138.632812 7162.695312 -1003.515625 6193.28125 C -1003.515625 6193.28125 -1841.367188 6467.109375 -1922.421875 5710.3125 C -1922.421875 5710.3125 -2685 6031.09375 -2544.0625 5494.101562 C -2544.0625 5494.101562 -1895.390625 4737.304688 -949.453125 5331.914062 C -949.453125 5331.914062 -57.578125 4629.21875 915.390625 5331.914062 C 915.390625 5331.914062 1969.453125 4602.1875 3104.609375 5331.914062 Z M 3104.609375 5331.914062 " transform="matrix(0.1, 0, 0, -0.1, 0, 2000)"/>
<path fill-rule="nonzero" fill="rgb(11.260986%, 21.350098%, 34.814453%)" fill-opacity="1" d="M 437.476562 705.789062 L -446.3125 705.789062 C -446.3125 705.789062 -435.316406 657.859375 -371.5625 686.441406 C -371.5625 686.441406 -388.050781 564.421875 -251.746094 622.679688 C -251.746094 622.679688 -260.539062 431.410156 -79.164062 533.640625 C -79.164062 533.640625 100.011719 280 233.019531 604.679688 C 233.019531 604.679688 340.742188 553.429688 360.527344 678.738281 C 360.527344 678.738281 437.476562 664.679688 437.476562 705.789062 "/>
<path fill="none" stroke-width="100" stroke-linecap="butt" stroke-linejoin="miter" stroke="rgb(19.633484%, 29.08783%, 45.281982%)" stroke-opacity="1" stroke-miterlimit="10" d="M 4374.765625 12942.109375 L -4463.125 12942.109375 C -4463.125 12942.109375 -4353.164062 13421.40625 -3715.625 13135.585938 C -3715.625 13135.585938 -3880.507812 14355.78125 -2517.460938 13773.203125 C -2517.460938 13773.203125 -2605.390625 15685.898438 -791.640625 14663.59375 C -791.640625 14663.59375 1000.117188 17200 2330.195312 13953.203125 C 2330.195312 13953.203125 3407.421875 14465.703125 3605.273438 13212.617188 C 3605.273438 13212.617188 4374.765625 13353.203125 4374.765625 12942.109375 Z M 4374.765625 12942.109375 " transform="matrix(0.1, 0, 0, -0.1, 0, 2000)"/>
<path fill-rule="nonzero" fill="rgb(17.132568%, 29.38385%, 44.877625%)" fill-opacity="1" d="M 219.035156 663.089844 C 219.035156 663.089844 306.007812 641.46875 359.816406 700.929688 C 359.816406 700.929688 400.359375 746.871094 289.425781 746.871094 C 289.425781 746.871094 251.464844 768.5 197.410156 746.871094 C 197.410156 746.871094 102.816406 779.609375 -26.910156 756.480469 C -26.910156 756.480469 -251.238281 763.089844 -194.480469 730.660156 C -194.480469 730.660156 -172.726562 699.628906 -116.664062 718.308594 C -116.664062 718.308594 -108.96875 588.601562 17.445312 639.171875 C 17.445312 639.171875 121.632812 502.339844 219.035156 663.089844 "/>
<path fill="none" stroke-width="100" stroke-linecap="butt" stroke-linejoin="miter" stroke="rgb(25.389099%, 39.050293%, 55.680847%)" stroke-opacity="1" stroke-miterlimit="10" d="M 2190.351562 13369.101562 C 2190.351562 13369.101562 3060.078125 13585.3125 3598.164062 12990.703125 C 3598.164062 12990.703125 4003.59375 12531.289062 2894.257812 12531.289062 C 2894.257812 12531.289062 2514.648438 12315 1974.101562 12531.289062 C 1974.101562 12531.289062 1028.164062 12203.90625 -269.101562 12435.195312 C -269.101562 12435.195312 -2512.382812 12369.101562 -1944.804688 12693.398438 C -1944.804688 12693.398438 -1727.265625 13003.710938 -1166.640625 12816.914062 C -1166.640625 12816.914062 -1089.6875 14113.984375 174.453125 13608.28125 C 174.453125 13608.28125 1216.328125 14976.601562 2190.351562 13369.101562 Z M 2190.351562 13369.101562 " transform="matrix(0.1, 0, 0, -0.1, 0, 2000)"/>
<path fill-rule="nonzero" fill="rgb(11.260986%, 21.350098%, 34.814453%)" fill-opacity="1" d="M 1995 525.910156 L 1111.210938 525.910156 C 1111.210938 525.910156 1122.210938 477.980469 1185.960938 506.558594 C 1185.960938 506.558594 1169.46875 384.539062 1305.78125 442.800781 C 1305.78125 442.800781 1296.980469 251.53125 1478.359375 353.761719 C 1478.359375 353.761719 1657.53125 100.121094 1790.539062 424.800781 C 1790.539062 424.800781 1898.269531 373.550781 1918.050781 498.859375 C 1918.050781 498.859375 1995 484.800781 1995 525.910156 "/>
<path fill="none" stroke-width="100" stroke-linecap="butt" stroke-linejoin="miter" stroke="rgb(19.633484%, 29.08783%, 45.281982%)" stroke-opacity="1" stroke-miterlimit="10" d="M 19950 14740.898438 L 11112.109375 14740.898438 C 11112.109375 14740.898438 11222.109375 15220.195312 11859.609375 14934.414062 C 11859.609375 14934.414062 11694.6875 16154.609375 13057.8125 15571.992188 C 13057.8125 15571.992188 12969.804688 17484.6875 14783.59375 16462.382812 C 14783.59375 16462.382812 16575.3125 18998.789062 17905.390625 15751.992188 C 17905.390625 15751.992188 18982.695312 16264.492188 19180.507812 15011.40625 C 19180.507812 15011.40625 19950 15151.992188 19950 14740.898438 Z M 19950 14740.898438 " transform="matrix(0.1, 0, 0, -0.1, 0, 2000)"/>
<path fill-rule="nonzero" fill="rgb(17.132568%, 29.38385%, 44.877625%)" fill-opacity="1" d="M 1776.558594 483.210938 C 1776.558594 483.210938 1863.53125 461.589844 1917.339844 521.050781 C 1917.339844 521.050781 1957.878906 566.988281 1846.949219 566.988281 C 1846.949219 566.988281 1808.988281 588.621094 1754.941406 566.988281 C 1754.941406 566.988281 1660.339844 599.730469 1530.609375 576.601562 C 1530.609375 576.601562 1306.289062 583.210938 1363.039062 550.78125 C 1363.039062 550.78125 1384.800781 519.75 1440.859375 538.429688 C 1440.859375 538.429688 1448.558594 408.71875 1574.96875 459.289062 C 1574.96875 459.289062 1679.160156 322.460938 1776.558594 483.210938 "/>
<path fill="none" stroke-width="100" stroke-linecap="butt" stroke-linejoin="miter" stroke="rgb(25.389099%, 39.050293%, 55.680847%)" stroke-opacity="1" stroke-miterlimit="10" d="M 17765.585938 15167.890625 C 17765.585938 15167.890625 18635.3125 15384.101562 19173.398438 14789.492188 C 19173.398438 14789.492188 19578.789062 14330.117188 18469.492188 14330.117188 C 18469.492188 14330.117188 18089.882812 14113.789062 17549.414062 14330.117188 C 17549.414062 14330.117188 16603.398438 14002.695312 15306.09375 14233.984375 C 15306.09375 14233.984375 13062.890625 14167.890625 13630.390625 14492.1875 C 13630.390625 14492.1875 13848.007812 14802.5 14408.59375 14615.703125 C 14408.59375 14615.703125 14485.585938 15912.8125 15749.6875 15407.109375 C 15749.6875 15407.109375 16791.601562 16775.390625 17765.585938 15167.890625 Z M 17765.585938 15167.890625 " transform="matrix(0.1, 0, 0, -0.1, 0, 2000)"/>
<path fill-rule="nonzero" fill="rgb(11.260986%, 21.350098%, 34.814453%)" fill-opacity="1" d="M 2259.929688 1245.25 L 1376.148438 1245.25 C 1376.148438 1245.25 1387.140625 1197.320312 1450.890625 1225.898438 C 1450.890625 1225.898438 1434.398438 1103.878906 1570.710938 1162.140625 C 1570.710938 1162.140625 1561.921875 970.878906 1743.289062 1073.101562 C 1743.289062 1073.101562 1922.46875 819.460938 2055.46875 1144.140625 C 2055.46875 1144.140625 2163.199219 1092.890625 2182.988281 1218.199219 C 2182.988281 1218.199219 2259.929688 1204.140625 2259.929688 1245.25 "/>
<path fill="none" stroke-width="100" stroke-linecap="butt" stroke-linejoin="miter" stroke="rgb(19.633484%, 29.08783%, 45.281982%)" stroke-opacity="1" stroke-miterlimit="10" d="M 22599.296875 7547.5 L 13761.484375 7547.5 C 13761.484375 7547.5 13871.40625 8026.796875 14508.90625 7741.015625 C 14508.90625 7741.015625 14343.984375 8961.210938 15707.109375 8378.59375 C 15707.109375 8378.59375 15619.21875 10291.210938 17432.890625 9268.984375 C 17432.890625 9268.984375 19224.6875 11805.390625 20554.6875 8558.59375 C 20554.6875 8558.59375 21631.992188 9071.09375 21829.882812 7818.007812 C 21829.882812 7818.007812 22599.296875 7958.59375 22599.296875 7547.5 Z M 22599.296875 7547.5 " transform="matrix(0.1, 0, 0, -0.1, 0, 2000)"/>
<path fill-rule="nonzero" fill="rgb(17.132568%, 29.38385%, 44.877625%)" fill-opacity="1" d="M 2041.488281 1202.550781 C 2041.488281 1202.550781 2128.460938 1180.929688 2182.269531 1240.390625 C 2182.269531 1240.390625 2222.808594 1286.339844 2111.878906 1286.339844 C 2111.878906 1286.339844 2073.921875 1307.960938 2019.871094 1286.339844 C 2019.871094 1286.339844 1925.269531 1319.070312 1795.539062 1295.949219 C 1795.539062 1295.949219 1571.21875 1302.550781 1627.980469 1270.121094 C 1627.980469 1270.121094 1649.730469 1239.089844 1705.789062 1257.78125 C 1705.789062 1257.78125 1713.488281 1128.070312 1839.898438 1178.628906 C 1839.898438 1178.628906 1944.089844 1041.800781 2041.488281 1202.550781 "/>
<path fill="none" stroke-width="100" stroke-linecap="butt" stroke-linejoin="miter" stroke="rgb(25.389099%, 39.050293%, 55.680847%)" stroke-opacity="1" stroke-miterlimit="10" d="M 20414.882812 7974.492188 C 20414.882812 7974.492188 21284.609375 8190.703125 21822.695312 7596.09375 C 21822.695312 7596.09375 22228.085938 7136.601562 21118.789062 7136.601562 C 21118.789062 7136.601562 20739.21875 6920.390625 20198.710938 7136.601562 C 20198.710938 7136.601562 19252.695312 6809.296875 17955.390625 7040.507812 C 17955.390625 7040.507812 15712.1875 6974.492188 16279.804688 7298.789062 C 16279.804688 7298.789062 16497.304688 7609.101562 17057.890625 7422.1875 C 17057.890625 7422.1875 17134.882812 8719.296875 18398.984375 8213.710938 C 18398.984375 8213.710938 19440.898438 9581.992188 20414.882812 7974.492188 Z M 20414.882812 7974.492188 " transform="matrix(0.1, 0, 0, -0.1, 0, 2000)"/>
<path fill-rule="nonzero" fill="rgb(100%, 100%, 100%)" fill-opacity="1" d="M 585.609375 398.03125 C 585.609375 398.03125 685.636719 471.679688 782.273438 383.371094 C 787.019531 379.03125 792.441406 375.308594 796.414062 370.238281 C 810.402344 352.410156 852.722656 308.921875 809.851562 203.46875 C 809.851562 203.46875 862.320312 243.351562 865.289062 314.039062 C 868.253906 384.621094 819.683594 446.589844 751.046875 463.300781 C 700.285156 475.660156 634.652344 471.601562 585.609375 398.03125 "/>
<path fill-rule="nonzero" fill="rgb(100%, 100%, 100%)" fill-opacity="1" d="M 12.414062 134.621094 C 7.46875 135.351562 6.875 135.949219 6.136719 140.890625 C 5.402344 135.949219 4.804688 135.351562 -0.140625 134.621094 C 4.804688 133.878906 5.402344 133.28125 6.136719 128.339844 C 6.875 133.28125 7.46875 133.878906 12.414062 134.621094 "/>
<path fill-rule="nonzero" fill="rgb(100%, 100%, 100%)" fill-opacity="1" d="M 12.464844 111.261719 C 7.519531 111.988281 6.925781 112.589844 6.1875 117.539062 C 5.453125 112.589844 4.859375 111.988281 -0.0859375 111.261719 C 4.859375 110.519531 5.453125 109.929688 6.1875 104.980469 C 6.925781 109.929688 7.519531 110.519531 12.464844 111.261719 "/>
<path fill-rule="nonzero" fill="rgb(100%, 100%, 100%)" fill-opacity="1" d="M 110.144531 34.019531 C 105.199219 34.75 104.605469 35.351562 103.867188 40.300781 C 103.132812 35.351562 102.535156 34.75 97.589844 34.019531 C 102.535156 33.28125 103.132812 32.691406 103.867188 27.738281 C 104.605469 32.691406 105.199219 33.28125 110.144531 34.019531 "/>
<path fill-rule="nonzero" fill="rgb(100%, 100%, 100%)" fill-opacity="1" d="M 140.265625 24.28125 C 135.316406 25.011719 134.722656 25.609375 133.988281 30.558594 C 133.25 25.609375 132.65625 25.011719 127.710938 24.28125 C 132.65625 23.539062 133.25 22.949219 133.988281 18 C 134.722656 22.949219 135.316406 23.539062 140.265625 24.28125 "/>
<path fill-rule="nonzero" fill="rgb(100%, 100%, 100%)" fill-opacity="1" d="M 68.601562 132.53125 C 63.65625 133.269531 63.058594 133.859375 62.324219 138.808594 C 61.589844 133.859375 60.992188 133.269531 56.046875 132.53125 C 60.992188 131.800781 61.589844 131.199219 62.324219 126.25 C 63.058594 131.199219 63.65625 131.800781 68.601562 132.53125 "/>
<path fill-rule="nonzero" fill="rgb(100%, 100%, 100%)" fill-opacity="1" d="M 13.574219 317.980469 C 8.628906 318.710938 8.03125 319.308594 7.296875 324.25 C 6.5625 319.308594 5.964844 318.710938 1.019531 317.980469 C 5.964844 317.238281 6.5625 316.640625 7.296875 311.699219 C 8.03125 316.640625 8.628906 317.238281 13.574219 317.980469 "/>
<path fill-rule="nonzero" fill="rgb(100%, 100%, 100%)" fill-opacity="1" d="M 146.503906 352.859375 C 141.558594 353.601562 140.960938 354.191406 140.226562 359.140625 C 139.492188 354.191406 138.894531 353.601562 133.949219 352.859375 C 138.894531 352.128906 139.492188 351.53125 140.226562 346.589844 C 140.960938 351.53125 141.558594 352.128906 146.503906 352.859375 "/>
<path fill-rule="nonzero" fill="rgb(100%, 100%, 100%)" fill-opacity="1" d="M 623.609375 69.390625 C 618.664062 70.128906 618.066406 70.730469 617.332031 75.671875 C 616.597656 70.730469 616 70.128906 611.054688 69.390625 C 616 68.660156 616.597656 68.058594 617.332031 63.121094 C 618.066406 68.058594 618.664062 68.660156 623.609375 69.390625 "/>
<path fill-rule="nonzero" fill="rgb(100%, 100%, 100%)" fill-opacity="1" d="M 428.96875 502.710938 C 424.023438 503.441406 423.425781 504.039062 422.691406 508.980469 C 421.957031 504.039062 421.359375 503.441406 416.414062 502.710938 C 421.359375 501.96875 421.957031 501.378906 422.691406 496.429688 C 423.425781 501.378906 424.023438 501.96875 428.96875 502.710938 "/>
<path fill-rule="nonzero" fill="rgb(100%, 100%, 100%)" fill-opacity="1" d="M 118.691406 1033.289062 C 113.746094 1034.019531 113.148438 1034.621094 112.414062 1039.558594 C 111.679688 1034.621094 111.082031 1034.019531 106.136719 1033.289062 C 111.082031 1032.550781 111.679688 1031.949219 112.414062 1027.011719 C 113.148438 1031.949219 113.746094 1032.550781 118.691406 1033.289062 "/>
<path fill-rule="nonzero" fill="rgb(100%, 100%, 100%)" fill-opacity="1" d="M 278.050781 855.441406 C 273.101562 856.179688 272.507812 856.769531 271.773438 861.71875 C 271.035156 856.769531 270.441406 856.179688 265.492188 855.441406 C 270.441406 854.710938 271.035156 854.109375 271.773438 849.171875 C 272.507812 854.109375 273.101562 854.710938 278.050781 855.441406 "/>
<path fill-rule="nonzero" fill="rgb(100%, 100%, 100%)" fill-opacity="1" d="M 30.28125 1525.730469 C 25.335938 1526.46875 24.738281 1527.070312 24.003906 1532.011719 C 23.269531 1527.070312 22.671875 1526.46875 17.726562 1525.730469 C 22.671875 1525 23.269531 1524.398438 24.003906 1519.460938 C 24.738281 1524.398438 25.335938 1525 30.28125 1525.730469 "/>
<path fill-rule="nonzero" fill="rgb(100%, 100%, 100%)" fill-opacity="1" d="M 93.050781 1686.730469 C 88.105469 1687.46875 87.511719 1688.058594 86.773438 1693.011719 C 86.039062 1688.058594 85.441406 1687.46875 80.496094 1686.730469 C 85.441406 1685.988281 86.039062 1685.398438 86.773438 1680.449219 C 87.511719 1685.398438 88.105469 1685.988281 93.050781 1686.730469 "/>
<path fill-rule="nonzero" fill="rgb(100%, 100%, 100%)" fill-opacity="1" d="M 1635.550781 -3.011719 C 1630.601562 -2.28125 1630.011719 -1.679688 1629.269531 3.269531 C 1628.539062 -1.679688 1627.941406 -2.28125 1622.988281 -3.011719 C 1627.941406 -3.75 1628.539062 -4.339844 1629.269531 -9.289062 C 1630.011719 -4.339844 1630.601562 -3.75 1635.550781 -3.011719 "/>
<path fill-rule="nonzero" fill="rgb(100%, 100%, 100%)" fill-opacity="1" d="M 693.257812 1341.980469 C 688.3125 1342.710938 687.714844 1343.308594 686.980469 1348.25 C 686.246094 1343.308594 685.648438 1342.710938 680.703125 1341.980469 C 685.648438 1341.238281 686.246094 1340.640625 686.980469 1335.699219 C 687.714844 1340.640625 688.3125 1341.238281 693.257812 1341.980469 "/>
<path fill-rule="nonzero" fill="rgb(100%, 100%, 100%)" fill-opacity="1" d="M 375.917969 1950.230469 C 370.972656 1950.96875 370.375 1951.570312 369.640625 1956.511719 C 368.90625 1951.570312 368.308594 1950.96875 363.363281 1950.230469 C 368.308594 1949.5 368.90625 1948.898438 369.640625 1943.960938 C 370.375 1948.898438 370.972656 1949.5 375.917969 1950.230469 "/>
<path fill-rule="nonzero" fill="rgb(100%, 100%, 100%)" fill-opacity="1" d="M 1268.699219 943.269531 C 1263.761719 944.011719 1263.160156 944.601562 1262.421875 949.550781 C 1261.691406 944.601562 1261.089844 944.011719 1256.148438 943.269531 C 1261.089844 942.539062 1261.691406 941.941406 1262.421875 936.988281 C 1263.160156 941.941406 1263.761719 942.539062 1268.699219 943.269531 "/>
<path fill-rule="nonzero" fill="rgb(100%, 100%, 100%)" fill-opacity="1" d="M 1861.039062 413.160156 C 1856.101562 413.890625 1855.5 414.488281 1854.761719 419.429688 C 1854.03125 414.488281 1853.429688 413.890625 1848.488281 413.160156 C 1853.429688 412.421875 1854.03125 411.820312 1854.761719 406.878906 C 1855.5 411.820312 1856.101562 412.421875 1861.039062 413.160156 "/>
<path fill-rule="nonzero" fill="rgb(100%, 100%, 100%)" fill-opacity="1" d="M 1170.398438 1599.871094 C 1165.449219 1600.609375 1164.851562 1601.199219 1164.121094 1606.148438 C 1163.378906 1601.199219 1162.789062 1600.609375 1157.839844 1599.871094 C 1162.789062 1599.140625 1163.378906 1598.539062 1164.121094 1593.601562 C 1164.851562 1598.539062 1165.449219 1599.140625 1170.398438 1599.871094 "/>
<path fill-rule="nonzero" fill="rgb(100%, 100%, 100%)" fill-opacity="1" d="M 1118.109375 1951.441406 C 1113.171875 1952.167969 1112.570312 1952.769531 1111.828125 1957.710938 C 1111.101562 1952.769531 1110.5 1952.167969 1105.558594 1951.441406 C 1110.5 1950.699219 1111.101562 1950.101562 1111.828125 1945.160156 C 1112.570312 1950.101562 1113.171875 1950.699219 1118.109375 1951.441406 "/>
<path fill-rule="nonzero" fill="rgb(100%, 100%, 100%)" fill-opacity="1" d="M 1948.101562 1440.910156 C 1943.148438 1441.648438 1942.550781 1442.238281 1941.820312 1447.191406 C 1941.078125 1442.238281 1940.488281 1441.648438 1935.539062 1440.910156 C 1940.488281 1440.179688 1941.078125 1439.578125 1941.820312 1434.628906 C 1942.550781 1439.578125 1943.148438 1440.179688 1948.101562 1440.910156 "/>
<path fill-rule="nonzero" fill="rgb(100%, 100%, 100%)" fill-opacity="1" d="M 1912.769531 1652.601562 C 1907.820312 1653.339844 1907.21875 1653.929688 1906.488281 1658.878906 C 1905.75 1653.929688 1905.160156 1653.339844 1900.210938 1652.601562 C 1905.160156 1651.871094 1905.75 1651.269531 1906.488281 1646.320312 C 1907.21875 1651.269531 1907.820312 1651.871094 1912.769531 1652.601562 "/>
<path fill-rule="nonzero" fill="rgb(100%, 100%, 100%)" fill-opacity="1" d="M 1392.050781 1609.859375 C 1387.109375 1610.589844 1386.511719 1611.191406 1385.78125 1616.140625 C 1385.039062 1611.191406 1384.441406 1610.589844 1379.5 1609.859375 C 1384.441406 1609.121094 1385.039062 1608.53125 1385.78125 1603.578125 C 1386.511719 1608.53125 1387.109375 1609.121094 1392.050781 1609.859375 "/>
<path fill-rule="nonzero" fill="rgb(100%, 100%, 100%)" fill-opacity="1" d="M 1373.460938 1563.558594 C 1368.511719 1564.289062 1367.910156 1564.890625 1367.179688 1569.828125 C 1366.441406 1564.890625 1365.851562 1564.289062 1360.898438 1563.558594 C 1365.851562 1562.820312 1366.441406 1562.21875 1367.179688 1557.28125 C 1367.910156 1562.21875 1368.511719 1562.820312 1373.460938 1563.558594 "/>
<path fill-rule="nonzero" fill="rgb(100%, 100%, 100%)" fill-opacity="1" d="M 834.925781 1652.058594 C 829.976562 1652.789062 829.382812 1653.390625 828.648438 1658.328125 C 827.910156 1653.390625 827.316406 1652.789062 822.367188 1652.058594 C 827.316406 1651.320312 827.910156 1650.71875 828.648438 1645.78125 C 829.382812 1650.71875 829.976562 1651.320312 834.925781 1652.058594 "/>
<path fill-rule="nonzero" fill="rgb(100%, 100%, 100%)" fill-opacity="1" d="M 746.996094 1414.199219 C 742.050781 1414.941406 741.457031 1415.539062 740.722656 1420.480469 C 739.984375 1415.539062 739.390625 1414.941406 734.441406 1414.199219 C 739.390625 1413.46875 739.984375 1412.871094 740.722656 1407.929688 C 741.457031 1412.871094 742.050781 1413.46875 746.996094 1414.199219 "/>
<path fill-rule="nonzero" fill="rgb(100%, 100%, 100%)" fill-opacity="1" d="M 462.894531 1148.351562 C 457.949219 1149.089844 457.351562 1149.679688 456.617188 1154.628906 C 455.882812 1149.679688 455.285156 1149.089844 450.339844 1148.351562 C 455.285156 1147.621094 455.882812 1147.019531 456.617188 1142.070312 C 457.351562 1147.019531 457.949219 1147.621094 462.894531 1148.351562 "/>
<path fill-rule="nonzero" fill="rgb(100%, 100%, 100%)" fill-opacity="1" d="M 1222.148438 131.078125 C 1217.210938 131.808594 1216.609375 132.410156 1215.871094 137.359375 C 1215.140625 132.410156 1214.539062 131.808594 1209.601562 131.078125 C 1214.539062 130.339844 1215.140625 129.75 1215.871094 124.800781 C 1216.609375 129.75 1217.210938 130.339844 1222.148438 131.078125 "/>
<path fill-rule="nonzero" fill="rgb(100%, 100%, 100%)" fill-opacity="1" d="M 1125.71875 211.46875 C 1120.78125 212.210938 1120.179688 212.800781 1119.449219 217.75 C 1118.710938 212.800781 1118.109375 212.210938 1113.171875 211.46875 C 1118.109375 210.738281 1118.710938 210.140625 1119.449219 205.191406 C 1120.179688 210.140625 1120.78125 210.738281 1125.71875 211.46875 "/>
<path fill-rule="nonzero" fill="rgb(100%, 100%, 100%)" fill-opacity="1" d="M 189.992188 1536.199219 C 185.046875 1536.929688 184.453125 1537.53125 183.71875 1542.480469 C 182.980469 1537.53125 182.386719 1536.929688 177.4375 1536.199219 C 182.386719 1535.460938 182.980469 1534.871094 183.71875 1529.921875 C 184.453125 1534.871094 185.046875 1535.460938 189.992188 1536.199219 "/>
<path fill-rule="nonzero" fill="rgb(100%, 100%, 100%)" fill-opacity="1" d="M 253.132812 1491.789062 C 248.1875 1492.53125 247.59375 1493.121094 246.855469 1498.070312 C 246.121094 1493.121094 245.523438 1492.53125 240.578125 1491.789062 C 245.523438 1491.058594 246.121094 1490.460938 246.855469 1485.511719 C 247.59375 1490.460938 248.1875 1491.058594 253.132812 1491.789062 "/>
<path fill-rule="nonzero" fill="rgb(100%, 100%, 100%)" fill-opacity="1" d="M 1010.871094 599.300781 C 1005.921875 600.03125 1005.320312 600.628906 1004.589844 605.578125 C 1003.851562 600.628906 1003.261719 600.03125 998.3125 599.300781 C 1003.261719 598.558594 1003.851562 597.96875 1004.589844 593.019531 C 1005.320312 597.96875 1005.921875 598.558594 1010.871094 599.300781 "/>
<path fill-rule="nonzero" fill="rgb(100%, 100%, 100%)" fill-opacity="1" d="M 1381.140625 -1.089844 C 1376.191406 -0.359375 1375.601562 0.238281 1374.859375 5.191406 C 1374.128906 0.238281 1373.53125 -0.359375 1368.578125 -1.089844 C 1373.53125 -1.828125 1374.128906 -2.421875 1374.859375 -7.371094 C 1375.601562 -2.421875 1376.191406 -1.828125 1381.140625 -1.089844 "/>
<path fill-rule="nonzero" fill="rgb(100%, 100%, 100%)" fill-opacity="1" d="M 189.1875 1393.820312 C 184.242188 1394.558594 183.644531 1395.148438 182.910156 1400.101562 C 182.175781 1395.148438 181.578125 1394.558594 176.632812 1393.820312 C 181.578125 1393.089844 182.175781 1392.488281 182.910156 1387.539062 C 183.644531 1392.488281 184.242188 1393.089844 189.1875 1393.820312 "/>
<path fill-rule="nonzero" fill="rgb(100%, 100%, 100%)" fill-opacity="1" d="M 798.394531 1049.960938 C 793.449219 1050.699219 792.855469 1051.289062 792.117188 1056.238281 C 791.382812 1051.289062 790.785156 1050.699219 785.839844 1049.960938 C 790.785156 1049.230469 791.382812 1048.628906 792.117188 1043.679688 C 792.855469 1048.628906 793.449219 1049.230469 798.394531 1049.960938 "/>
<path fill-rule="nonzero" fill="rgb(100%, 100%, 100%)" fill-opacity="1" d="M 1965.078125 -0.0507812 C 1960.140625 0.679688 1959.539062 1.28125 1958.800781 6.21875 C 1958.070312 1.28125 1957.46875 0.679688 1952.53125 -0.0507812 C 1957.46875 -0.789062 1958.070312 -1.378906 1958.800781 -6.328125 C 1959.539062 -1.378906 1960.140625 -0.789062 1965.078125 -0.0507812 "/>
<path fill-rule="nonzero" fill="rgb(100%, 100%, 100%)" fill-opacity="1" d="M 1539.648438 723.800781 C 1534.699219 724.539062 1534.101562 725.128906 1533.371094 730.078125 C 1532.628906 725.128906 1532.039062 724.539062 1527.089844 723.800781 C 1532.039062 723.070312 1532.628906 722.46875 1533.371094 717.519531 C 1534.101562 722.46875 1534.699219 723.070312 1539.648438 723.800781 "/>
<path fill-rule="nonzero" fill="rgb(100%, 100%, 100%)" fill-opacity="1" d="M 1444.519531 1014.859375 C 1439.578125 1015.601562 1438.980469 1016.191406 1438.25 1021.140625 C 1437.511719 1016.191406 1436.910156 1015.601562 1431.96875 1014.859375 C 1436.910156 1014.128906 1437.511719 1013.53125 1438.25 1008.578125 C 1438.980469 1013.53125 1439.578125 1014.128906 1444.519531 1014.859375 "/>
<path fill-rule="nonzero" fill="rgb(100%, 100%, 100%)" fill-opacity="1" d="M 1842.910156 477.609375 C 1837.96875 478.339844 1837.371094 478.941406 1836.640625 483.878906 C 1835.898438 478.941406 1835.300781 478.339844 1830.359375 477.609375 C 1835.300781 476.871094 1835.898438 476.269531 1836.640625 471.328125 C 1837.371094 476.269531 1837.96875 476.871094 1842.910156 477.609375 "/>
<path fill-rule="nonzero" fill="rgb(100%, 100%, 100%)" fill-opacity="1" d="M 1082.550781 1432.078125 C 1077.609375 1432.808594 1077.011719 1433.410156 1076.28125 1438.351562 C 1075.539062 1433.410156 1074.941406 1432.808594 1070 1432.078125 C 1074.941406 1431.339844 1075.539062 1430.738281 1076.28125 1425.800781 C 1077.011719 1430.738281 1077.609375 1431.339844 1082.550781 1432.078125 "/>
<path fill-rule="nonzero" fill="rgb(100%, 100%, 100%)" fill-opacity="1" d="M 1019.101562 1413.878906 C 1014.148438 1414.609375 1013.558594 1415.210938 1012.820312 1420.148438 C 1012.089844 1415.210938 1011.488281 1414.609375 1006.550781 1413.878906 C 1011.488281 1413.140625 1012.089844 1412.539062 1012.820312 1407.601562 C 1013.558594 1412.539062 1014.148438 1413.140625 1019.101562 1413.878906 "/>
<path fill-rule="nonzero" fill="rgb(100%, 100%, 100%)" fill-opacity="1" d="M 1188.039062 1093.941406 C 1183.101562 1094.679688 1182.5 1095.269531 1181.769531 1100.21875 C 1181.03125 1095.269531 1180.441406 1094.679688 1175.488281 1093.941406 C 1180.441406 1093.210938 1181.03125 1092.609375 1181.769531 1087.660156 C 1182.5 1092.609375 1183.101562 1093.210938 1188.039062 1093.941406 "/>
<path fill-rule="nonzero" fill="rgb(100%, 100%, 100%)" fill-opacity="1" d="M 984.714844 1139.941406 C 979.769531 1140.671875 979.175781 1141.269531 978.4375 1146.21875 C 977.703125 1141.269531 977.105469 1140.671875 972.160156 1139.941406 C 977.105469 1139.199219 977.703125 1138.609375 978.4375 1133.660156 C 979.175781 1138.609375 979.769531 1139.199219 984.714844 1139.941406 "/>
<path fill-rule="nonzero" fill="rgb(100%, 100%, 100%)" fill-opacity="1" d="M 684.089844 1218.140625 C 679.140625 1218.878906 678.546875 1219.46875 677.808594 1224.421875 C 677.074219 1219.46875 676.480469 1218.878906 671.53125 1218.140625 C 676.480469 1217.410156 677.074219 1216.808594 677.808594 1211.859375 C 678.546875 1216.808594 679.140625 1217.410156 684.089844 1218.140625 "/>
<path fill-rule="nonzero" fill="rgb(100%, 100%, 100%)" fill-opacity="1" d="M 1419.148438 1210.578125 C 1414.210938 1211.308594 1413.609375 1211.910156 1412.871094 1216.851562 C 1412.140625 1211.910156 1411.539062 1211.308594 1406.601562 1210.578125 C 1411.539062 1209.839844 1412.140625 1209.238281 1412.871094 1204.300781 C 1413.609375 1209.238281 1414.210938 1209.839844 1419.148438 1210.578125 "/>
<path fill-rule="nonzero" fill="rgb(100%, 100%, 100%)" fill-opacity="1" d="M 1806.421875 1202.371094 C 1801.480469 1203.101562 1800.878906 1203.699219 1800.140625 1208.640625 C 1799.410156 1203.699219 1798.808594 1203.101562 1793.871094 1202.371094 C 1798.808594 1201.628906 1799.410156 1201.03125 1800.140625 1196.089844 C 1800.878906 1201.03125 1801.480469 1201.628906 1806.421875 1202.371094 "/>
<path fill-rule="nonzero" fill="rgb(100%, 100%, 100%)" fill-opacity="1" d="M 1647.488281 1210.808594 C 1642.550781 1211.550781 1641.949219 1212.140625 1641.21875 1217.089844 C 1640.480469 1212.140625 1639.878906 1211.550781 1634.941406 1210.808594 C 1639.878906 1210.078125 1640.480469 1209.480469 1641.21875 1204.53125 C 1641.949219 1209.480469 1642.550781 1210.078125 1647.488281 1210.808594 "/>
<path fill-rule="nonzero" fill="rgb(100%, 100%, 100%)" fill-opacity="1" d="M 508.125 1094.03125 C 503.179688 1094.769531 502.585938 1095.359375 501.847656 1100.308594 C 501.113281 1095.359375 500.515625 1094.769531 495.570312 1094.03125 C 500.515625 1093.289062 501.113281 1092.699219 501.847656 1087.75 C 502.585938 1092.699219 503.179688 1093.289062 508.125 1094.03125 "/>
<path fill-rule="nonzero" fill="rgb(100%, 100%, 100%)" fill-opacity="1" d="M 437.125 970.109375 C 432.179688 970.851562 431.582031 971.441406 430.847656 976.390625 C 430.113281 971.441406 429.515625 970.851562 424.570312 970.109375 C 429.515625 969.371094 430.113281 968.78125 430.847656 963.828125 C 431.582031 968.78125 432.179688 969.371094 437.125 970.109375 "/>
<path fill-rule="nonzero" fill="rgb(100%, 100%, 100%)" fill-opacity="1" d="M 1230.199219 943.128906 C 1225.25 943.871094 1224.660156 944.46875 1223.921875 949.410156 C 1223.191406 944.46875 1222.589844 943.871094 1217.648438 943.128906 C 1222.589844 942.398438 1223.191406 941.800781 1223.921875 936.859375 C 1224.660156 941.800781 1225.25 942.398438 1230.199219 943.128906 "/>
<path fill-rule="nonzero" fill="rgb(100%, 100%, 100%)" fill-opacity="1" d="M 1734.75 989.351562 C 1729.800781 990.089844 1729.199219 990.679688 1728.46875 995.628906 C 1727.730469 990.679688 1727.140625 990.089844 1722.191406 989.351562 C 1727.140625 988.621094 1727.730469 988.019531 1728.46875 983.070312 C 1729.199219 988.019531 1729.800781 988.621094 1734.75 989.351562 "/>
<path fill-rule="nonzero" fill="rgb(100%, 100%, 100%)" fill-opacity="1" d="M 710.414062 908.289062 C 705.46875 909.019531 704.875 909.621094 704.140625 914.558594 C 703.402344 909.621094 702.808594 909.019531 697.859375 908.289062 C 702.808594 907.550781 703.402344 906.949219 704.140625 902.011719 C 704.875 906.949219 705.46875 907.550781 710.414062 908.289062 "/>
<path fill-rule="nonzero" fill="rgb(100%, 100%, 100%)" fill-opacity="1" d="M 92.203125 935.171875 C 87.257812 935.910156 86.660156 936.5 85.925781 941.449219 C 85.191406 936.5 84.59375 935.910156 79.648438 935.171875 C 84.59375 934.441406 85.191406 933.839844 85.925781 928.890625 C 86.660156 933.839844 87.257812 934.441406 92.203125 935.171875 "/>
<path fill-rule="nonzero" fill="rgb(100%, 100%, 100%)" fill-opacity="1" d="M 1257.710938 625.980469 C 1252.769531 626.71875 1252.171875 627.308594 1251.441406 632.261719 C 1250.699219 627.308594 1250.101562 626.71875 1245.160156 625.980469 C 1250.101562 625.238281 1250.699219 624.648438 1251.441406 619.699219 C 1252.171875 624.648438 1252.769531 625.238281 1257.710938 625.980469 "/>
<path fill-rule="nonzero" fill="rgb(100%, 100%, 100%)" fill-opacity="1" d="M 1645.511719 643.871094 C 1640.558594 644.609375 1639.96875 645.199219 1639.230469 650.148438 C 1638.5 645.199219 1637.898438 644.609375 1632.949219 643.871094 C 1637.898438 643.140625 1638.5 642.539062 1639.230469 637.589844 C 1639.96875 642.539062 1640.558594 643.140625 1645.511719 643.871094 "/>
<path fill-rule="nonzero" fill="rgb(100%, 100%, 100%)" fill-opacity="1" d="M 543.742188 564.839844 C 538.796875 565.570312 538.199219 566.171875 537.464844 571.121094 C 536.730469 566.171875 536.132812 565.570312 531.1875 564.839844 C 536.132812 564.101562 536.730469 563.511719 537.464844 558.558594 C 538.199219 563.511719 538.796875 564.101562 543.742188 564.839844 "/>
<path fill-rule="nonzero" fill="rgb(100%, 100%, 100%)" fill-opacity="1" d="M 764.210938 520.109375 C 759.265625 520.839844 758.671875 521.441406 757.933594 526.378906 C 757.199219 521.441406 756.601562 520.839844 751.65625 520.109375 C 756.601562 519.371094 757.199219 518.78125 757.933594 513.828125 C 758.671875 518.78125 759.265625 519.371094 764.210938 520.109375 "/>
<path fill-rule="nonzero" fill="rgb(100%, 100%, 100%)" fill-opacity="1" d="M 464.269531 378.351562 C 459.324219 379.089844 458.726562 379.691406 457.992188 384.628906 C 457.257812 379.691406 456.660156 379.089844 451.714844 378.351562 C 456.660156 377.621094 457.257812 377.019531 457.992188 372.078125 C 458.726562 377.019531 459.324219 377.621094 464.269531 378.351562 "/>
<path fill-rule="nonzero" fill="rgb(100%, 100%, 100%)" fill-opacity="1" d="M 190.195312 459.441406 C 185.25 460.179688 184.652344 460.769531 183.917969 465.71875 C 183.183594 460.769531 182.585938 460.179688 177.640625 459.441406 C 182.585938 458.710938 183.183594 458.109375 183.917969 453.160156 C 184.652344 458.109375 185.25 458.710938 190.195312 459.441406 "/>
<path fill-rule="nonzero" fill="rgb(100%, 100%, 100%)" fill-opacity="1" d="M 711.324219 387.078125 C 706.378906 387.820312 705.78125 388.410156 705.046875 393.359375 C 704.3125 388.410156 703.714844 387.820312 698.769531 387.078125 C 703.714844 386.351562 704.3125 385.75 705.046875 380.808594 C 705.78125 385.75 706.378906 386.351562 711.324219 387.078125 "/>
<path fill-rule="nonzero" fill="rgb(100%, 100%, 100%)" fill-opacity="1" d="M 1664.511719 220.28125 C 1659.558594 221.019531 1658.960938 221.621094 1658.230469 226.558594 C 1657.488281 221.621094 1656.898438 221.019531 1651.949219 220.28125 C 1656.898438 219.550781 1657.488281 218.949219 1658.230469 214.011719 C 1658.960938 218.949219 1659.558594 219.550781 1664.511719 220.28125 "/>
<path fill-rule="nonzero" fill="rgb(100%, 100%, 100%)" fill-opacity="1" d="M 1079.28125 201.949219 C 1074.339844 202.679688 1073.738281 203.28125 1073 208.21875 C 1072.269531 203.28125 1071.671875 202.679688 1066.730469 201.949219 C 1071.671875 201.210938 1072.269531 200.609375 1073 195.671875 C 1073.738281 200.609375 1074.339844 201.210938 1079.28125 201.949219 "/>
<path fill-rule="nonzero" fill="rgb(100%, 100%, 100%)" fill-opacity="1" d="M 1662.859375 43.898438 C 1657.921875 44.628906 1657.320312 45.230469 1656.589844 50.171875 C 1655.851562 45.230469 1655.25 44.628906 1650.308594 43.898438 C 1655.25 43.160156 1655.851562 42.558594 1656.589844 37.621094 C 1657.320312 42.558594 1657.921875 43.160156 1662.859375 43.898438 "/>
<path fill-rule="nonzero" fill="rgb(100%, 100%, 100%)" fill-opacity="1" d="M 1663.960938 132.109375 C 1659.011719 132.839844 1658.410156 133.441406 1657.679688 138.378906 C 1656.941406 133.441406 1656.351562 132.839844 1651.398438 132.109375 C 1656.351562 131.371094 1656.941406 130.769531 1657.679688 125.828125 C 1658.410156 130.769531 1659.011719 131.371094 1663.960938 132.109375 "/>
<path fill-rule="nonzero" fill="rgb(100%, 100%, 100%)" fill-opacity="1" d="M 270.085938 1358.589844 C 265.140625 1359.328125 264.546875 1359.921875 263.808594 1364.871094 C 263.074219 1359.921875 262.476562 1359.328125 257.53125 1358.589844 C 262.476562 1357.859375 263.074219 1357.261719 263.808594 1352.308594 C 264.546875 1357.261719 265.140625 1357.859375 270.085938 1358.589844 "/>
<path fill-rule="nonzero" fill="rgb(100%, 100%, 100%)" fill-opacity="1" d="M 647.980469 1396.398438 C 643.035156 1397.140625 642.4375 1397.738281 641.703125 1402.679688 C 640.96875 1397.738281 640.371094 1397.140625 635.425781 1396.398438 C 640.371094 1395.671875 640.96875 1395.070312 641.703125 1390.128906 C 642.4375 1395.070312 643.035156 1395.671875 647.980469 1396.398438 "/>
<path fill-rule="nonzero" fill="rgb(100%, 100%, 100%)" fill-opacity="1" d="M 1974.488281 1265.5 C 1969.539062 1266.238281 1968.949219 1266.828125 1968.210938 1271.78125 C 1967.480469 1266.828125 1966.878906 1266.238281 1961.941406 1265.5 C 1966.878906 1264.761719 1967.480469 1264.171875 1968.210938 1259.21875 C 1968.949219 1264.171875 1969.539062 1264.761719 1974.488281 1265.5 "/>
<path fill-rule="nonzero" fill="rgb(100%, 100%, 100%)" fill-opacity="1" d="M 226.503906 1660.351562 C 221.558594 1661.078125 220.960938 1661.679688 220.226562 1666.621094 C 219.492188 1661.679688 218.894531 1661.078125 213.949219 1660.351562 C 218.894531 1659.609375 219.492188 1659.011719 220.226562 1654.070312 C 220.960938 1659.011719 221.558594 1659.609375 226.503906 1660.351562 "/>
<path fill-rule="nonzero" fill="rgb(100%, 100%, 100%)" fill-opacity="1" d="M 21.371094 1597.910156 C 16.425781 1598.640625 15.828125 1599.238281 15.09375 1604.179688 C 14.359375 1599.238281 13.761719 1598.640625 8.816406 1597.910156 C 13.761719 1597.171875 14.359375 1596.570312 15.09375 1591.628906 C 15.828125 1596.570312 16.425781 1597.171875 21.371094 1597.910156 "/>
<path fill-rule="nonzero" fill="rgb(100%, 100%, 100%)" fill-opacity="1" d="M 1347.050781 1211.078125 C 1342.101562 1211.808594 1341.5 1212.410156 1340.769531 1217.351562 C 1340.03125 1212.410156 1339.441406 1211.808594 1334.488281 1211.078125 C 1339.441406 1210.339844 1340.03125 1209.75 1340.769531 1204.800781 C 1341.5 1209.75 1342.101562 1210.339844 1347.050781 1211.078125 "/>
<path fill-rule="nonzero" fill="rgb(100%, 100%, 100%)" fill-opacity="1" d="M 1983.601562 1218.839844 C 1978.660156 1219.578125 1978.058594 1220.171875 1977.328125 1225.121094 C 1976.589844 1220.171875 1976 1219.578125 1971.050781 1218.839844 C 1976 1218.101562 1976.589844 1217.511719 1977.328125 1212.558594 C 1978.058594 1217.511719 1978.660156 1218.101562 1983.601562 1218.839844 "/>
<path fill-rule="nonzero" fill="rgb(100%, 100%, 100%)" fill-opacity="1" d="M 1152.410156 1166.660156 C 1147.460938 1167.398438 1146.871094 1167.988281 1146.128906 1172.941406 C 1145.398438 1167.988281 1144.800781 1167.398438 1139.851562 1166.660156 C 1144.800781 1165.929688 1145.398438 1165.328125 1146.128906 1160.378906 C 1146.871094 1165.328125 1147.460938 1165.929688 1152.410156 1166.660156 "/>
<path fill-rule="nonzero" fill="rgb(100%, 100%, 100%)" fill-opacity="1" d="M 938.570312 1121.351562 C 933.625 1122.089844 933.027344 1122.691406 932.292969 1127.628906 C 931.558594 1122.691406 930.960938 1122.089844 926.015625 1121.351562 C 930.960938 1120.621094 931.558594 1120.019531 932.292969 1115.078125 C 933.027344 1120.019531 933.625 1120.621094 938.570312 1121.351562 "/>
<path fill-rule="nonzero" fill="rgb(100%, 100%, 100%)" fill-opacity="1" d="M 1240.820312 1282.140625 C 1235.871094 1282.871094 1235.269531 1283.46875 1234.539062 1288.410156 C 1233.800781 1283.46875 1233.210938 1282.871094 1228.261719 1282.140625 C 1233.210938 1281.398438 1233.800781 1280.800781 1234.539062 1275.859375 C 1235.269531 1280.800781 1235.871094 1281.398438 1240.820312 1282.140625 "/>
<path fill-rule="nonzero" fill="rgb(100%, 100%, 100%)" fill-opacity="1" d="M 1479.96875 1352.480469 C 1475.03125 1353.21875 1474.429688 1353.808594 1473.699219 1358.761719 C 1472.960938 1353.808594 1472.359375 1353.21875 1467.421875 1352.480469 C 1472.359375 1351.75 1472.960938 1351.148438 1473.699219 1346.199219 C 1474.429688 1351.148438 1475.03125 1351.75 1479.96875 1352.480469 "/>
<path fill-rule="nonzero" fill="rgb(100%, 100%, 100%)" fill-opacity="1" d="M 1081.320312 1120.988281 C 1076.371094 1121.730469 1075.78125 1122.328125 1075.039062 1127.269531 C 1074.308594 1122.328125 1073.710938 1121.730469 1068.761719 1120.988281 C 1073.710938 1120.261719 1074.308594 1119.660156 1075.039062 1114.71875 C 1075.78125 1119.660156 1076.371094 1120.261719 1081.320312 1120.988281 "/>
<path fill-rule="nonzero" fill="rgb(100%, 100%, 100%)" fill-opacity="1" d="M 957.578125 1039.839844 C 952.632812 1040.570312 952.035156 1041.171875 951.300781 1046.109375 C 950.5625 1041.171875 949.96875 1040.570312 945.023438 1039.839844 C 949.96875 1039.101562 950.5625 1038.5 951.300781 1033.558594 C 952.035156 1038.5 952.632812 1039.101562 957.578125 1039.839844 "/>
<path fill-rule="nonzero" fill="rgb(100%, 100%, 100%)" fill-opacity="1" d="M 1568.660156 1441.121094 C 1563.71875 1441.859375 1563.121094 1442.449219 1562.390625 1447.398438 C 1561.648438 1442.449219 1561.050781 1441.859375 1556.109375 1441.121094 C 1561.050781 1440.390625 1561.648438 1439.789062 1562.390625 1434.851562 C 1563.121094 1439.789062 1563.71875 1440.390625 1568.660156 1441.121094 "/>
<path fill-rule="nonzero" fill="rgb(100%, 100%, 100%)" fill-opacity="1" d="M 1788.601562 1590.78125 C 1783.660156 1591.519531 1783.058594 1592.109375 1782.328125 1597.058594 C 1781.589844 1592.109375 1781 1591.519531 1776.050781 1590.78125 C 1781 1590.050781 1781.589844 1589.449219 1782.328125 1584.511719 C 1783.058594 1589.449219 1783.660156 1590.050781 1788.601562 1590.78125 "/>
<path fill-rule="nonzero" fill="rgb(100%, 100%, 100%)" fill-opacity="1" d="M 1329.46875 1138.441406 C 1324.53125 1139.179688 1323.929688 1139.78125 1323.199219 1144.71875 C 1322.460938 1139.78125 1321.859375 1139.179688 1316.921875 1138.441406 C 1321.859375 1137.710938 1322.460938 1137.109375 1323.199219 1132.171875 C 1323.929688 1137.109375 1324.53125 1137.710938 1329.46875 1138.441406 "/>
<path fill-rule="nonzero" fill="rgb(100%, 100%, 100%)" fill-opacity="1" d="M 1336.738281 255.339844 C 1331.789062 256.070312 1331.199219 256.671875 1330.460938 261.609375 C 1329.730469 256.671875 1329.128906 256.070312 1324.179688 255.339844 C 1329.128906 254.601562 1329.730469 254.011719 1330.460938 249.058594 C 1331.199219 254.011719 1331.789062 254.601562 1336.738281 255.339844 "/>
<path fill-rule="nonzero" fill="rgb(100%, 100%, 100%)" fill-opacity="1" d="M 1416.300781 353.019531 C 1411.351562 353.761719 1410.761719 354.351562 1410.019531 359.300781 C 1409.289062 354.351562 1408.691406 353.761719 1403.75 353.019531 C 1408.691406 352.28125 1409.289062 351.691406 1410.019531 346.738281 C 1410.761719 351.691406 1411.351562 352.28125 1416.300781 353.019531 "/>
<path fill-rule="nonzero" fill="rgb(100%, 100%, 100%)" fill-opacity="1" d="M 1869.628906 997.859375 C 1864.679688 998.589844 1864.078125 999.191406 1863.351562 1004.140625 C 1862.609375 999.191406 1862.019531 998.589844 1857.070312 997.859375 C 1862.019531 997.121094 1862.609375 996.53125 1863.351562 991.578125 C 1864.078125 996.53125 1864.679688 997.121094 1869.628906 997.859375 "/>
<path fill-rule="nonzero" fill="rgb(100%, 100%, 100%)" fill-opacity="1" d="M 1993.289062 1077.390625 C 1988.339844 1078.128906 1987.738281 1078.71875 1987.011719 1083.671875 C 1986.269531 1078.71875 1985.679688 1078.128906 1980.730469 1077.390625 C 1985.679688 1076.660156 1986.269531 1076.058594 1987.011719 1071.121094 C 1987.738281 1076.058594 1988.339844 1076.660156 1993.289062 1077.390625 "/>
<path fill-rule="nonzero" fill="rgb(100%, 100%, 100%)" fill-opacity="1" d="M 1681.398438 405.730469 C 1676.460938 406.46875 1675.859375 407.058594 1675.128906 412.011719 C 1674.390625 407.058594 1673.789062 406.46875 1668.851562 405.730469 C 1673.789062 405 1674.390625 404.398438 1675.128906 399.460938 C 1675.859375 404.398438 1676.460938 405 1681.398438 405.730469 "/>
<path fill-rule="nonzero" fill="rgb(100%, 100%, 100%)" fill-opacity="1" d="M 1619.128906 282.53125 C 1614.179688 283.261719 1613.589844 283.859375 1612.851562 288.808594 C 1612.121094 283.859375 1611.519531 283.261719 1606.570312 282.53125 C 1611.519531 281.789062 1612.121094 281.199219 1612.851562 276.25 C 1613.589844 281.199219 1614.179688 281.789062 1619.128906 282.53125 "/>
<path fill-rule="nonzero" fill="rgb(100%, 100%, 100%)" fill-opacity="1" d="M 1743.769531 839.859375 C 1738.820312 840.589844 1738.21875 841.191406 1737.488281 846.128906 C 1736.75 841.191406 1736.160156 840.589844 1731.210938 839.859375 C 1736.160156 839.121094 1736.75 838.519531 1737.488281 833.578125 C 1738.21875 838.519531 1738.820312 839.121094 1743.769531 839.859375 "/>
<path fill-rule="nonzero" fill="rgb(100%, 100%, 100%)" fill-opacity="1" d="M 1806.410156 1034.328125 C 1801.460938 1035.058594 1800.859375 1035.660156 1800.128906 1040.601562 C 1799.390625 1035.660156 1798.800781 1035.058594 1793.851562 1034.328125 C 1798.800781 1033.589844 1799.390625 1033 1800.128906 1028.050781 C 1800.859375 1033 1801.460938 1033.589844 1806.410156 1034.328125 "/>
<path fill-rule="nonzero" fill="rgb(100%, 100%, 100%)" fill-opacity="1" d="M 1789.808594 724.191406 C 1784.859375 724.929688 1784.269531 725.519531 1783.53125 730.46875 C 1782.800781 725.519531 1782.199219 724.929688 1777.261719 724.191406 C 1782.199219 723.460938 1782.800781 722.859375 1783.53125 717.910156 C 1784.269531 722.859375 1784.859375 723.460938 1789.808594 724.191406 "/>
<path fill-rule="nonzero" fill="rgb(100%, 100%, 100%)" fill-opacity="1" d="M 1762.101562 616.648438 C 1757.148438 617.390625 1756.550781 617.980469 1755.820312 622.929688 C 1755.078125 617.980469 1754.488281 617.390625 1749.539062 616.648438 C 1754.488281 615.921875 1755.078125 615.320312 1755.820312 610.371094 C 1756.550781 615.320312 1757.148438 615.921875 1762.101562 616.648438 "/>
<path fill-rule="nonzero" fill="rgb(100%, 100%, 100%)" fill-opacity="1" d="M 1761.390625 687.878906 C 1756.449219 688.609375 1755.851562 689.210938 1755.121094 694.148438 C 1754.378906 689.210938 1753.789062 688.609375 1748.839844 687.878906 C 1753.789062 687.140625 1754.378906 686.539062 1755.121094 681.601562 C 1755.851562 686.539062 1756.449219 687.140625 1761.390625 687.878906 "/>
<path fill-rule="nonzero" fill="rgb(100%, 100%, 100%)" fill-opacity="1" d="M 1798.628906 778.308594 C 1793.679688 779.039062 1793.078125 779.640625 1792.351562 784.578125 C 1791.609375 779.640625 1791.019531 779.039062 1786.070312 778.308594 C 1791.019531 777.570312 1791.609375 776.96875 1792.351562 772.03125 C 1793.078125 776.96875 1793.679688 777.570312 1798.628906 778.308594 "/>
<path fill-rule="nonzero" fill="rgb(100%, 100%, 100%)" fill-opacity="1" d="M 1805.25 440.429688 C 1800.300781 441.171875 1799.699219 441.761719 1798.96875 446.710938 C 1798.230469 441.761719 1797.640625 441.171875 1792.691406 440.429688 C 1797.640625 439.699219 1798.230469 439.101562 1798.96875 434.148438 C 1799.699219 439.101562 1800.300781 439.699219 1805.25 440.429688 "/>
<path fill-rule="nonzero" fill="rgb(100%, 100%, 100%)" fill-opacity="1" d="M 1700.960938 24.851562 C 1696.011719 25.578125 1695.410156 26.179688 1694.679688 31.121094 C 1693.941406 26.179688 1693.351562 25.578125 1688.398438 24.851562 C 1693.351562 24.109375 1693.941406 23.519531 1694.679688 18.570312 C 1695.410156 23.519531 1696.011719 24.109375 1700.960938 24.851562 "/>
<path fill-rule="nonzero" fill="rgb(100%, 100%, 100%)" fill-opacity="1" d="M 825.578125 758.160156 C 820.632812 758.890625 820.035156 759.488281 819.300781 764.441406 C 818.566406 759.488281 817.96875 758.890625 813.023438 758.160156 C 817.96875 757.421875 818.566406 756.828125 819.300781 751.878906 C 820.035156 756.828125 820.632812 757.421875 825.578125 758.160156 "/>
<path fill-rule="nonzero" fill="rgb(100%, 100%, 100%)" fill-opacity="1" d="M 295.402344 1023.941406 C 290.457031 1024.679688 289.863281 1025.269531 289.128906 1030.21875 C 288.390625 1025.269531 287.796875 1024.679688 282.847656 1023.941406 C 287.796875 1023.210938 288.390625 1022.609375 289.128906 1017.660156 C 289.863281 1022.609375 290.457031 1023.210938 295.402344 1023.941406 "/>
<path fill-rule="nonzero" fill="rgb(100%, 100%, 100%)" fill-opacity="1" d="M 357.152344 529.859375 C 352.203125 530.601562 351.609375 531.191406 350.875 536.140625 C 350.136719 531.191406 349.542969 530.601562 344.597656 529.859375 C 349.542969 529.128906 350.136719 528.53125 350.875 523.578125 C 351.609375 528.53125 352.203125 529.128906 357.152344 529.859375 "/>
<path fill-rule="nonzero" fill="rgb(100%, 100%, 100%)" fill-opacity="1" d="M 490.816406 175.609375 C 485.871094 176.351562 485.273438 176.941406 484.539062 181.890625 C 483.804688 176.941406 483.207031 176.351562 478.261719 175.609375 C 483.207031 174.878906 483.804688 174.28125 484.539062 169.339844 C 485.273438 174.28125 485.871094 174.878906 490.816406 175.609375 "/>
<path fill-rule="nonzero" fill="rgb(100%, 100%, 100%)" fill-opacity="1" d="M 268.230469 240.789062 C 263.285156 241.519531 262.691406 242.121094 261.953125 247.058594 C 261.21875 242.121094 260.621094 241.519531 255.679688 240.789062 C 260.621094 240.050781 261.21875 239.460938 261.953125 234.511719 C 262.691406 239.460938 263.285156 240.050781 268.230469 240.789062 "/>
<path fill-rule="nonzero" fill="rgb(100%, 100%, 100%)" fill-opacity="1" d="M 303.53125 235.078125 C 298.585938 235.820312 297.988281 236.410156 297.253906 241.359375 C 296.519531 236.410156 295.921875 235.820312 290.976562 235.078125 C 295.921875 234.351562 296.519531 233.75 297.253906 228.800781 C 297.988281 233.75 298.585938 234.351562 303.53125 235.078125 "/>
<path fill-rule="nonzero" fill="rgb(100%, 100%, 100%)" fill-opacity="1" d="M 1000.261719 192.851562 C 995.316406 193.578125 994.71875 194.179688 993.984375 199.121094 C 993.25 194.179688 992.652344 193.578125 987.707031 192.851562 C 992.652344 192.109375 993.25 191.519531 993.984375 186.570312 C 994.71875 191.519531 995.316406 192.109375 1000.261719 192.851562 "/>
<path fill-rule="nonzero" fill="rgb(100%, 100%, 100%)" fill-opacity="1" d="M 1249.808594 169.449219 C 1244.871094 170.191406 1244.269531 170.78125 1243.539062 175.730469 C 1242.800781 170.78125 1242.210938 170.191406 1237.261719 169.449219 C 1242.210938 168.71875 1242.800781 168.121094 1243.539062 163.171875 C 1244.269531 168.121094 1244.871094 168.71875 1249.808594 169.449219 "/>
<path fill-rule="nonzero" fill="rgb(100%, 100%, 100%)" fill-opacity="1" d="M 1318.070312 160.101562 C 1313.128906 160.839844 1312.53125 161.429688 1311.800781 166.378906 C 1311.058594 161.429688 1310.460938 160.839844 1305.519531 160.101562 C 1310.460938 159.371094 1311.058594 158.769531 1311.800781 153.820312 C 1312.53125 158.769531 1313.128906 159.371094 1318.070312 160.101562 "/>
<path fill-rule="nonzero" fill="rgb(100%, 100%, 100%)" fill-opacity="1" d="M 1336.070312 149.058594 C 1331.121094 149.789062 1330.53125 150.390625 1329.789062 155.339844 C 1329.058594 150.390625 1328.460938 149.789062 1323.511719 149.058594 C 1328.460938 148.320312 1329.058594 147.730469 1329.789062 142.78125 C 1330.53125 147.730469 1331.121094 148.320312 1336.070312 149.058594 "/>
<path fill-rule="nonzero" fill="rgb(100%, 100%, 100%)" fill-opacity="1" d="M 556.425781 212.410156 C 551.480469 213.148438 550.882812 213.738281 550.148438 218.691406 C 549.410156 213.738281 548.816406 213.148438 543.871094 212.410156 C 548.816406 211.679688 549.410156 211.078125 550.148438 206.128906 C 550.882812 211.078125 551.480469 211.679688 556.425781 212.410156 "/>
<path fill-rule="nonzero" fill="rgb(100%, 100%, 100%)" fill-opacity="1" d="M 253.035156 301.230469 C 248.089844 301.960938 247.492188 302.558594 246.757812 307.511719 C 246.023438 302.558594 245.425781 301.960938 240.480469 301.230469 C 245.425781 300.488281 246.023438 299.898438 246.757812 294.949219 C 247.492188 299.898438 248.089844 300.488281 253.035156 301.230469 "/>
<path fill-rule="nonzero" fill="rgb(100%, 100%, 100%)" fill-opacity="1" d="M 366.691406 294.769531 C 361.746094 295.511719 361.148438 296.101562 360.414062 301.050781 C 359.679688 296.101562 359.085938 295.511719 354.136719 294.769531 C 359.085938 294.03125 359.679688 293.441406 360.414062 288.488281 C 361.148438 293.441406 361.746094 294.03125 366.691406 294.769531 "/>
<path fill-rule="nonzero" fill="rgb(100%, 100%, 100%)" fill-opacity="1" d="M 1412.578125 317.371094 C 1407.628906 318.109375 1407.039062 318.710938 1406.300781 323.648438 C 1405.558594 318.710938 1404.96875 318.109375 1400.019531 317.371094 C 1404.96875 316.640625 1405.558594 316.039062 1406.300781 311.101562 C 1407.039062 316.039062 1407.628906 316.640625 1412.578125 317.371094 "/>
<path fill-rule="nonzero" fill="rgb(100%, 100%, 100%)" fill-opacity="1" d="M 1655.339844 327.609375 C 1650.398438 328.339844 1649.800781 328.941406 1649.058594 333.878906 C 1648.328125 328.941406 1647.730469 328.339844 1642.789062 327.609375 C 1647.730469 326.871094 1648.328125 326.269531 1649.058594 321.328125 C 1649.800781 326.269531 1650.398438 326.871094 1655.339844 327.609375 "/>
<path fill-rule="nonzero" fill="rgb(100%, 100%, 100%)" fill-opacity="1" d="M 1414.96875 367.390625 C 1410.019531 368.121094 1409.421875 368.71875 1408.691406 373.660156 C 1407.949219 368.71875 1407.359375 368.121094 1402.410156 367.390625 C 1407.359375 366.648438 1407.949219 366.058594 1408.691406 361.109375 C 1409.421875 366.058594 1410.019531 366.648438 1414.96875 367.390625 "/>
<path fill-rule="nonzero" fill="rgb(100%, 100%, 100%)" fill-opacity="1" d="M 392.382812 452.191406 C 387.4375 452.921875 386.839844 453.519531 386.105469 458.460938 C 385.367188 453.519531 384.773438 452.921875 379.828125 452.191406 C 384.773438 451.449219 385.367188 450.851562 386.105469 445.910156 C 386.839844 450.851562 387.4375 451.449219 392.382812 452.191406 "/>
<path fill-rule="nonzero" fill="rgb(100%, 100%, 100%)" fill-opacity="1" d="M 327.546875 473.269531 C 322.597656 474 322.003906 474.601562 321.269531 479.539062 C 320.53125 474.601562 319.9375 474 314.988281 473.269531 C 319.9375 472.53125 320.53125 471.941406 321.269531 466.988281 C 322.003906 471.941406 322.597656 472.53125 327.546875 473.269531 "/>
<path fill-rule="nonzero" fill="rgb(100%, 100%, 100%)" fill-opacity="1" d="M 430.6875 413.660156 C 425.742188 414.398438 425.144531 414.988281 424.410156 419.941406 C 423.675781 414.988281 423.078125 414.398438 418.132812 413.660156 C 423.078125 412.929688 423.675781 412.328125 424.410156 407.378906 C 425.144531 412.328125 425.742188 412.929688 430.6875 413.660156 "/>
<path fill-rule="nonzero" fill="rgb(100%, 100%, 100%)" fill-opacity="1" d="M 342.324219 26.871094 C 337.378906 27.609375 336.78125 28.210938 336.046875 33.148438 C 335.3125 28.210938 334.714844 27.609375 329.769531 26.871094 C 334.714844 26.140625 335.3125 25.539062 336.046875 20.601562 C 336.78125 25.539062 337.378906 26.140625 342.324219 26.871094 "/>
<path fill-rule="nonzero" fill="rgb(100%, 100%, 100%)" fill-opacity="1" d="M 264.429688 8.191406 C 259.484375 8.921875 258.890625 9.519531 258.152344 14.460938 C 257.417969 9.519531 256.820312 8.921875 251.875 8.191406 C 256.820312 7.449219 257.417969 6.859375 258.152344 1.910156 C 258.890625 6.859375 259.484375 7.449219 264.429688 8.191406 "/>
<path fill-rule="nonzero" fill="rgb(100%, 100%, 100%)" fill-opacity="1" d="M 474.601562 8.230469 C 469.65625 8.960938 469.058594 9.558594 468.324219 14.511719 C 467.589844 9.558594 466.992188 8.960938 462.046875 8.230469 C 466.992188 7.488281 467.589844 6.898438 468.324219 1.949219 C 469.058594 6.898438 469.65625 7.488281 474.601562 8.230469 "/>
<path fill-rule="nonzero" fill="rgb(100%, 100%, 100%)" fill-opacity="1" d="M 1726.808594 73.441406 C 1721.871094 74.179688 1721.269531 74.78125 1720.539062 79.71875 C 1719.800781 74.78125 1719.210938 74.179688 1714.261719 73.441406 C 1719.210938 72.710938 1719.800781 72.109375 1720.539062 67.171875 C 1721.269531 72.109375 1721.871094 72.710938 1726.808594 73.441406 "/>
<path fill-rule="nonzero" fill="rgb(100%, 100%, 100%)" fill-opacity="1" d="M 1834 65.578125 C 1829.058594 66.320312 1828.460938 66.921875 1827.730469 71.859375 C 1826.988281 66.921875 1826.390625 66.320312 1821.449219 65.578125 C 1826.390625 64.851562 1826.988281 64.25 1827.730469 59.308594 C 1828.460938 64.25 1829.058594 64.851562 1834 65.578125 "/>
<path fill-rule="nonzero" fill="rgb(100%, 100%, 100%)" fill-opacity="1" d="M 1818.589844 67.128906 C 1813.648438 67.859375 1813.050781 68.460938 1812.320312 73.398438 C 1811.578125 68.460938 1810.980469 67.859375 1806.039062 67.128906 C 1810.980469 66.390625 1811.578125 65.789062 1812.320312 60.851562 C 1813.050781 65.789062 1813.648438 66.390625 1818.589844 67.128906 "/>
<path fill-rule="nonzero" fill="rgb(100%, 100%, 100%)" fill-opacity="1" d="M 1708.261719 867.738281 C 1703.308594 868.46875 1702.71875 869.070312 1701.980469 874.019531 C 1701.25 869.070312 1700.648438 868.46875 1695.699219 867.738281 C 1700.648438 867 1701.25 866.410156 1701.980469 861.460938 C 1702.71875 866.410156 1703.308594 867 1708.261719 867.738281 "/>
<path fill-rule="nonzero" fill="rgb(100%, 100%, 100%)" fill-opacity="1" d="M 1465.449219 773.300781 C 1460.511719 774.039062 1459.910156 774.628906 1459.171875 779.578125 C 1458.441406 774.628906 1457.839844 774.039062 1452.898438 773.300781 C 1457.839844 772.570312 1458.441406 771.96875 1459.171875 767.03125 C 1459.910156 771.96875 1460.511719 772.570312 1465.449219 773.300781 "/>
<path fill-rule="nonzero" fill="rgb(100%, 100%, 100%)" fill-opacity="1" d="M 1099.71875 515.921875 C 1094.769531 516.648438 1094.179688 517.25 1093.441406 522.191406 C 1092.710938 517.25 1092.109375 516.648438 1087.160156 515.921875 C 1092.109375 515.179688 1092.710938 514.589844 1093.441406 509.640625 C 1094.179688 514.589844 1094.769531 515.179688 1099.71875 515.921875 "/>
<path fill-rule="nonzero" fill="rgb(100%, 100%, 100%)" fill-opacity="1" d="M 1089.761719 492.128906 C 1084.808594 492.859375 1084.210938 493.460938 1083.480469 498.410156 C 1082.738281 493.460938 1082.148438 492.859375 1077.199219 492.128906 C 1082.148438 491.390625 1082.738281 490.800781 1083.480469 485.851562 C 1084.210938 490.800781 1084.808594 491.390625 1089.761719 492.128906 "/>
<path fill-rule="nonzero" fill="rgb(100%, 100%, 100%)" fill-opacity="1" d="M 1102 496.929688 C 1097.050781 497.660156 1096.460938 498.261719 1095.71875 503.199219 C 1094.988281 498.261719 1094.390625 497.660156 1089.441406 496.929688 C 1094.390625 496.191406 1094.988281 495.589844 1095.71875 490.648438 C 1096.460938 495.589844 1097.050781 496.191406 1102 496.929688 "/>
<path fill-rule="nonzero" fill="rgb(100%, 100%, 100%)" fill-opacity="1" d="M 1086.898438 504.578125 C 1081.949219 505.308594 1081.359375 505.910156 1080.621094 510.851562 C 1079.890625 505.910156 1079.289062 505.308594 1074.339844 504.578125 C 1079.289062 503.839844 1079.890625 503.238281 1080.621094 498.300781 C 1081.359375 503.238281 1081.949219 503.839844 1086.898438 504.578125 "/>
<path fill-rule="nonzero" fill="rgb(100%, 100%, 100%)" fill-opacity="1" d="M 1055.121094 462.558594 C 1050.171875 463.289062 1049.578125 463.890625 1048.839844 468.828125 C 1048.109375 463.890625 1047.511719 463.289062 1042.558594 462.558594 C 1047.511719 461.820312 1048.109375 461.21875 1048.839844 456.28125 C 1049.578125 461.21875 1050.171875 461.820312 1055.121094 462.558594 "/>
<path fill-rule="nonzero" fill="rgb(100%, 100%, 100%)" fill-opacity="1" d="M 1022.789062 366.789062 C 1017.839844 367.53125 1017.25 368.121094 1016.511719 373.070312 C 1015.78125 368.121094 1015.179688 367.53125 1010.230469 366.789062 C 1015.179688 366.058594 1015.78125 365.460938 1016.511719 360.511719 C 1017.25 365.460938 1017.839844 366.058594 1022.789062 366.789062 "/>
<path fill-rule="nonzero" fill="rgb(100%, 100%, 100%)" fill-opacity="1" d="M 1085.808594 411.011719 C 1080.871094 411.75 1080.269531 412.351562 1079.53125 417.289062 C 1078.800781 412.351562 1078.199219 411.75 1073.261719 411.011719 C 1078.199219 410.28125 1078.800781 409.679688 1079.53125 404.738281 C 1080.269531 409.679688 1080.871094 410.28125 1085.808594 411.011719 "/>
<path fill-rule="nonzero" fill="rgb(100%, 100%, 100%)" fill-opacity="1" d="M 1474.371094 409.96875 C 1469.429688 410.710938 1468.828125 411.300781 1468.101562 416.25 C 1467.359375 411.300781 1466.769531 410.710938 1461.820312 409.96875 C 1466.769531 409.238281 1467.359375 408.640625 1468.101562 403.691406 C 1468.828125 408.640625 1469.429688 409.238281 1474.371094 409.96875 "/>
<path fill-rule="nonzero" fill="rgb(100%, 100%, 100%)" fill-opacity="1" d="M 1717.828125 205.730469 C 1712.878906 206.46875 1712.289062 207.070312 1711.550781 212.011719 C 1710.820312 207.070312 1710.21875 206.46875 1705.28125 205.730469 C 1710.21875 205 1710.820312 204.398438 1711.550781 199.460938 C 1712.289062 204.398438 1712.878906 205 1717.828125 205.730469 "/>
<path fill-rule="nonzero" fill="rgb(100%, 100%, 100%)" fill-opacity="1" d="M 1765.589844 118.460938 C 1760.640625 119.191406 1760.039062 119.789062 1759.308594 124.730469 C 1758.570312 119.789062 1757.980469 119.191406 1753.03125 118.460938 C 1757.980469 117.71875 1758.570312 117.121094 1759.308594 112.179688 C 1760.039062 117.121094 1760.640625 117.71875 1765.589844 118.460938 "/>
<path fill-rule="nonzero" fill="rgb(100%, 100%, 100%)" fill-opacity="1" d="M 1798.449219 52.359375 C 1793.511719 53.101562 1792.910156 53.691406 1792.179688 58.640625 C 1791.441406 53.691406 1790.839844 53.101562 1785.898438 52.359375 C 1790.839844 51.628906 1791.441406 51.03125 1792.179688 46.089844 C 1792.910156 51.03125 1793.511719 51.628906 1798.449219 52.359375 "/>
<path fill-rule="nonzero" fill="rgb(100%, 100%, 100%)" fill-opacity="1" d="M 1903.519531 231.921875 C 1898.578125 232.648438 1897.980469 233.25 1897.238281 238.191406 C 1896.511719 233.25 1895.910156 232.648438 1890.96875 231.921875 C 1895.910156 231.179688 1896.511719 230.589844 1897.238281 225.640625 C 1897.980469 230.589844 1898.578125 231.179688 1903.519531 231.921875 "/>
<path fill-rule="nonzero" fill="rgb(100%, 100%, 100%)" fill-opacity="1" d="M 1907.488281 313.53125 C 1902.550781 314.269531 1901.949219 314.859375 1901.21875 319.808594 C 1900.480469 314.859375 1899.890625 314.269531 1894.941406 313.53125 C 1899.890625 312.800781 1900.480469 312.199219 1901.21875 307.261719 C 1901.949219 312.199219 1902.550781 312.800781 1907.488281 313.53125 "/>
<path fill-rule="nonzero" fill="rgb(100%, 100%, 100%)" fill-opacity="1" d="M 1886.070312 306.648438 C 1881.128906 307.390625 1880.53125 307.980469 1879.800781 312.929688 C 1879.058594 307.980469 1878.460938 307.390625 1873.519531 306.648438 C 1878.460938 305.921875 1879.058594 305.320312 1879.800781 300.371094 C 1880.53125 305.320312 1881.128906 305.921875 1886.070312 306.648438 "/>
<path fill-rule="nonzero" fill="rgb(100%, 100%, 100%)" fill-opacity="1" d="M 1877.96875 198.609375 C 1873.019531 199.351562 1872.429688 199.949219 1871.691406 204.890625 C 1870.949219 199.949219 1870.359375 199.351562 1865.410156 198.609375 C 1870.359375 197.878906 1870.949219 197.28125 1871.691406 192.339844 C 1872.429688 197.28125 1873.019531 197.878906 1877.96875 198.609375 "/>
<path fill-rule="nonzero" fill="rgb(6.483459%, 5.953979%, 5.264282%)" fill-opacity="1" d="M 0.609375 1685 C 0.609375 1685 46.410156 1678.488281 61.675781 1662.199219 C 61.675781 1662.199219 103.660156 1587.269531 132.921875 1652.421875 C 132.921875 1652.421875 169.820312 1712.691406 235.976562 1668.710938 C 235.976562 1668.710938 395.011719 1530.261719 430.632812 1588.898438 C 430.632812 1588.898438 545.136719 1698.03125 579.488281 1645.910156 C 579.488281 1645.910156 657.097656 1623.101562 710.53125 1513.96875 C 710.53125 1513.96875 743.609375 1386.921875 795.773438 1531.890625 C 795.773438 1531.890625 842.847656 1621.480469 869.566406 1645.910156 C 869.566406 1645.910156 926.816406 1686.628906 971.347656 1611.699219 C 971.347656 1611.699219 1037.5 1522.109375 1057.859375 1497.679688 C 1078.21875 1473.25 1037.5 1522.109375 1037.5 1522.109375 C 1037.5 1522.109375 1084.578125 1419.5 1108.75 1515.601562 C 1108.75 1515.601562 1126.558594 1601.929688 1159.640625 1548.179688 C 1159.640625 1548.179688 1182.539062 1475.488281 1263.96875 1573.730469 C 1263.96875 1573.730469 1429.359375 1707.808594 1458.621094 1627.988281 C 1458.621094 1627.988281 1528.601562 1567.71875 1568.039062 1499.308594 C 1568.039062 1499.308594 1596.03125 1362.488281 1691.449219 1598.671875 C 1691.449219 1598.671875 1752.519531 1711.058594 1799.589844 1642.648438 C 1799.589844 1642.648438 1959.898438 1378.78125 1958.621094 1522.109375 C 1958.621094 1522.109375 1990.429688 1639.390625 2000.609375 1619.851562 L 2000.609375 2001 L 0.609375 2001 L 0.609375 1685 "/>
</svg>
